<?xml version="1.0" standalone="no"?>
<!DOCTYPE svg PUBLIC "-//W3C//DTD SVG 20010904//EN"
 "http://www.w3.org/TR/2001/REC-SVG-20010904/DTD/svg10.dtd">
<svg version="1.0" xmlns="http://www.w3.org/2000/svg"
 width="700.000000pt" height="700.000000pt" viewBox="0 0 700.000000 700.000000"
 preserveAspectRatio="xMidYMid meet">
<metadata>
Created by potrace 1.14, written by Peter Selinger 2001-2017
</metadata>
<g transform="translate(0.000000,700.000000) scale(0.100000,-0.100000)"
fill="#000000" stroke="none">
<path d="M3218 6996 c-1 -2 -55 -6 -118 -10 -63 -3 -126 -8 -140 -10 -14 -3
-52 -7 -85 -10 -446 -44 -897 -171 -1265 -355 -591 -296 -1034 -769 -1290
-1376 -23 -55 -46 -109 -51 -120 -18 -40 -68 -193 -103 -311 -39 -135 -96
-403 -112 -524 -3 -25 -7 -56 -9 -70 -3 -14 -7 -52 -11 -85 -3 -33 -8 -76 -10
-95 -13 -119 -19 -290 -19 -540 1 -346 12 -526 50 -770 12 -75 25 -157 29
-175 30 -148 40 -194 62 -275 151 -566 389 -1000 748 -1365 205 -207 410 -358
676 -497 367 -191 851 -330 1305 -374 33 -3 71 -7 84 -9 187 -31 925 -25 1167
9 22 3 62 8 90 11 28 3 59 7 70 9 10 2 39 7 64 11 93 14 106 16 145 25 22 5
56 12 75 15 96 16 449 120 545 160 17 7 55 23 85 35 484 198 897 527 1198 953
34 48 62 90 62 93 0 3 13 24 29 47 73 108 197 367 269 567 27 75 98 304 107
348 2 10 15 70 29 135 15 65 29 134 31 155 3 20 7 46 10 57 2 11 7 43 10 70 3
28 8 59 10 70 2 11 7 45 10 75 3 30 8 69 10 85 31 253 25 937 -11 1180 -3 22
-8 60 -10 85 -5 48 -24 168 -39 240 -14 71 -19 93 -41 190 -138 586 -400 1078
-774 1450 -140 140 -146 145 -285 250 -307 232 -690 408 -1118 515 -80 20
-169 40 -199 45 -29 5 -64 12 -78 14 -13 3 -42 8 -65 11 -22 3 -51 8 -65 10
-23 4 -42 7 -145 19 -43 5 -143 16 -215 23 -55 5 -707 13 -712 9z m592 -129
c25 -3 77 -9 115 -13 39 -3 77 -8 87 -9 9 -2 38 -7 65 -11 26 -3 57 -8 68 -10
11 -2 36 -7 55 -10 52 -9 288 -70 345 -89 789 -264 1325 -823 1614 -1682 80
-237 161 -587 141 -607 -15 -15 -59 10 -71 41 -6 15 -16 41 -24 58 -46 101
-69 155 -83 190 -17 46 -40 75 -57 75 -21 0 -53 44 -60 83 -8 44 -29 58 -88
60 -52 3 -65 11 -83 53 -14 32 -14 33 -83 33 -51 0 -71 -4 -75 -14 -7 -21 -43
-19 -55 2 -6 12 -22 18 -53 18 -48 0 -60 19 -37 61 11 22 10 27 -17 55 l-29
31 22 16 c12 9 33 25 47 34 47 34 8 83 -75 94 -24 4 -53 11 -64 17 -22 11 -75
66 -75 78 0 15 -67 29 -125 25 -104 -7 -141 23 -116 96 12 35 4 47 -34 49 -45
3 -74 -4 -142 -37 -91 -43 -118 -44 -138 -5 -25 50 -50 62 -95 46 -21 -7 -52
-21 -69 -29 -17 -9 -56 -18 -86 -20 -31 -2 -57 -5 -59 -7 -14 -16 -36 -73 -36
-93 0 -42 -17 -75 -37 -71 -10 2 -21 4 -25 4 -3 1 -20 13 -37 27 -34 29 -41
72 -16 98 24 23 18 35 -25 52 -41 17 -44 22 -55 92 -11 66 -39 92 -105 95 -67
4 -77 9 -85 47 -3 16 -15 32 -25 35 -34 11 -68 45 -75 75 l-7 30 -98 0 -99 0
-11 -40 c-6 -22 -12 -40 -13 -40 -1 0 -27 -3 -57 -6 -71 -8 -104 -26 -120 -64
-13 -32 -45 -39 -45 -10 -1 43 -37 52 -79 19 -34 -27 -89 -20 -146 17 -36 24
-41 25 -80 13 -41 -13 -43 -12 -64 14 -27 34 -41 34 -63 1 -15 -24 -21 -26
-62 -21 -25 4 -58 9 -73 13 -23 5 -29 2 -39 -20 -14 -29 -32 -32 -69 -11 -14
8 -34 14 -46 15 -14 0 -26 12 -38 41 -31 69 -66 61 -81 -19 -13 -74 -43 -113
-87 -117 -13 0 -22 -16 -26 -42 -8 -61 -44 -84 -61 -39 -5 13 -17 26 -26 30
-26 10 -80 7 -92 -5 -5 -5 -36 -12 -68 -14 -71 -5 -122 -28 -137 -61 -10 -22
-56 -43 -80 -36 -4 1 -18 -12 -32 -29 -27 -32 -39 -37 -92 -38 -53 -2 -70 -23
-73 -94 -1 -17 -9 -18 -81 -13 -78 5 -80 4 -107 -25 -33 -35 -74 -59 -102 -59
-55 0 -96 -45 -70 -76 7 -9 12 -40 12 -72 -1 -60 15 -92 47 -92 44 0 75 -84
42 -116 -21 -21 -82 -11 -129 21 -36 24 -36 24 -61 4 -14 -10 -37 -19 -53 -19
-15 0 -34 -3 -43 -6 -20 -8 -21 -47 -2 -63 21 -18 26 -50 9 -59 -8 -5 -37 -4
-66 2 -29 6 -59 11 -67 10 -8 -1 -25 -2 -38 -3 -13 0 -34 -12 -48 -26 -20 -20
-33 -24 -71 -22 -44 2 -46 1 -58 -32 -6 -19 -18 -38 -26 -42 -27 -13 -251 -90
-254 -87 -3 4 54 232 83 333 89 301 240 620 410 865 57 82 212 275 233 290 4
3 45 41 90 85 286 274 642 469 1069 584 41 11 90 23 109 26 19 3 38 8 41 10 4
3 25 7 46 10 22 4 77 12 124 20 108 17 162 23 280 31 52 4 96 8 98 9 5 4 460
-3 502 -8z m-196 -3202 c21 -16 54 -48 75 -72 21 -24 46 -46 57 -47 31 -5 22
-62 -24 -158 -23 -47 -43 -101 -45 -119 -1 -19 -7 -32 -12 -29 -5 3 -27 39
-48 80 -22 41 -44 81 -50 89 -6 7 -16 21 -22 32 -5 10 -36 60 -67 111 -32 52
-58 99 -58 105 0 6 18 20 40 31 50 24 102 17 154 -23z m-888 -121 c26 -45 58
-74 81 -74 7 0 21 9 32 21 23 25 38 22 125 -29 102 -59 206 -132 246 -172 34
-34 108 -166 98 -176 -2 -2 -31 22 -64 54 -92 89 -169 127 -401 196 -152 45
-293 104 -293 122 0 15 51 65 98 96 33 22 47 15 78 -38z m3552 33 c6 -6 14
-26 18 -42 12 -51 24 -59 51 -34 12 13 23 30 23 38 0 9 4 22 9 29 14 22 4
-359 -14 -583 -10 -112 -17 -181 -20 -195 -2 -8 -7 -39 -10 -69 -4 -30 -8 -61
-10 -70 -1 -9 -6 -36 -10 -61 -14 -93 -16 -103 -19 -109 -2 -3 -7 -22 -10 -41
-11 -69 -18 -97 -47 -215 -31 -122 -108 -365 -134 -422 -8 -17 -15 -34 -15
-37 0 -19 -138 -303 -175 -362 -52 -81 -123 -147 -204 -190 -122 -63 -248 -75
-421 -38 -63 13 -128 26 -145 29 -16 3 -61 12 -100 20 -38 8 -81 16 -95 18
-76 14 -148 28 -170 32 -14 3 -41 8 -60 11 -19 3 -51 9 -70 14 -19 5 -51 11
-70 14 -19 3 -46 8 -60 11 -25 5 -103 21 -150 30 -14 3 -47 10 -75 15 -109 22
-315 80 -393 110 -129 52 -177 105 -149 168 15 34 35 52 119 108 58 38 126 64
470 179 447 148 507 170 623 224 129 60 161 104 97 130 -47 18 -82 22 -267 26
-215 5 -280 12 -385 41 -162 45 -294 113 -427 220 -23 19 -46 34 -51 34 -18 0
-20 -24 -4 -55 l15 -30 -26 23 c-56 52 -93 208 -69 293 13 50 2 67 -34 50 -25
-11 -23 -7 16 36 25 27 80 90 123 141 43 51 96 106 119 122 43 31 144 67 213
76 22 3 55 7 74 9 18 2 88 7 155 10 205 10 287 20 326 40 14 7 51 41 82 74 32
34 65 61 75 61 9 0 32 -14 49 -31 24 -23 44 -33 76 -36 88 -8 124 -23 174 -74
59 -60 86 -63 115 -14 24 41 52 59 78 50 23 -7 37 -38 51 -116 12 -67 25 -99
40 -99 11 0 27 50 35 110 4 24 12 53 17 65 6 11 11 21 10 23 -19 27 93 113
163 125 17 3 43 10 58 16 45 18 123 13 167 -9 46 -23 54 -24 72 -7 8 6 41 38
75 70 63 58 82 67 101 44z m-2238 -22 c28 -15 50 -42 50 -64 0 -5 -25 -21 -55
-35 -30 -13 -79 -41 -108 -60 -93 -62 -107 -45 -58 70 41 95 100 126 171 89z
m-1901 -49 c25 -27 42 -78 31 -96 -4 -6 -18 -10 -31 -8 -35 5 -38 -32 -3 -53
14 -9 36 -33 48 -55 28 -50 50 -54 71 -15 17 34 26 36 120 22 33 -5 87 -12
120 -16 147 -14 253 -31 360 -55 45 -11 94 -21 109 -24 60 -11 158 -66 209
-119 91 -93 129 -195 121 -332 -7 -140 -11 -162 -38 -218 -58 -124 -192 -190
-431 -212 -38 -3 -79 -8 -90 -10 -11 -2 -51 -7 -90 -10 -82 -8 -199 -29 -237
-44 -29 -11 -37 -35 -15 -44 6 -2 102 -2 212 2 110 3 349 6 530 6 406 0 472
-11 429 -74 -47 -67 -392 -165 -934 -266 -41 -8 -84 -16 -95 -18 -11 -3 -36
-7 -55 -11 -19 -3 -46 -8 -60 -11 -14 -3 -52 -10 -85 -15 -33 -6 -127 -24
-210 -40 -82 -16 -168 -31 -190 -35 -227 -34 -422 -91 -635 -185 -131 -58
-218 -51 -295 24 -32 32 -51 65 -84 150 -69 176 -153 445 -187 596 -2 11 -6
28 -8 38 -13 50 -35 162 -41 202 -4 24 -8 47 -10 50 -2 3 -6 34 -10 70 -4 36
-8 67 -10 70 -1 3 -6 36 -10 73 -3 37 -8 76 -10 85 -6 34 -16 218 -20 367 -4
169 1 191 46 180 14 -3 33 -19 42 -34 10 -18 34 -35 64 -46 85 -31 111 -46
116 -66 3 -10 14 -19 24 -19 21 0 62 -34 64 -53 1 -7 2 -25 4 -42 4 -45 4 -45
21 -45 9 0 27 11 40 25 25 27 42 30 92 16 38 -11 62 6 62 43 0 33 23 48 78 54
70 7 89 17 111 60 35 68 71 80 91 28 14 -38 28 -40 57 -6 28 34 24 34 130 14
29 -6 33 -3 39 22 11 47 23 56 63 48 20 -4 50 -6 68 -6 24 2 33 -3 38 -18 9
-29 53 -27 64 4 14 35 56 76 88 85 38 10 97 -6 122 -33z m1091 -20 c36 -8 121
-53 152 -80 34 -30 102 -152 93 -166 -11 -18 -25 -11 -83 38 -68 59 -123 96
-217 147 -38 21 -72 40 -74 41 -2 2 -1 11 3 20 6 17 45 16 126 0z m1249 -6
c10 -5 35 -26 55 -46 26 -26 41 -34 54 -29 71 30 71 30 86 10 26 -35 35 -33
-259 -50 -130 -7 -176 -13 -276 -39 -75 -19 -91 -20 -101 -9 -7 8 -7 17 -2 22
40 34 99 74 155 105 63 35 70 36 135 31 38 -3 83 -2 99 4 17 5 31 10 33 10 2
1 11 -3 21 -9z m-1988 -31 c24 -16 59 -40 77 -52 52 -36 39 -52 -43 -51 -105
1 -208 14 -222 28 -10 9 -10 16 3 35 16 22 105 71 130 71 6 0 31 -14 55 -31z"/>
</g>
</svg>
