<svg xmlns="http://www.w3.org/2000/svg" width="473.211" height="100.405" viewBox="0 0 473.211 100.405"><defs><style>.a{fill:#ffcb84;}.b{fill:#fff;}</style></defs><g transform="translate(-172.147 -419.314)"><path class="a" d="M222.525,419.314c-37.318,0-50.378,22.52-50.378,50.2,0,13.819,3.259,26.351,11.157,35.438.755.865,1.547,1.7,2.39,2.505,7.991,7.633,19.918,12.259,36.83,12.259s28.84-4.626,36.83-12.259c.486-.463.959-.94,1.411-1.426,8.61-9.161,12.131-22.143,12.131-36.518C272.9,441.834,259.845,419.314,222.525,419.314Zm0,1.758c24.69,0,36.857,14.648,40.41,34.709a.319.319,0,0,1-.348.371,1.585,1.585,0,0,1-.484-.132.309.309,0,0,1-.141-.153l-2.068-4.739a.313.313,0,0,0-.19-.175,1.718,1.718,0,0,1-.586-.249c-.706-.55-.5-1.1-.693-1.56a.286.286,0,0,0-.143-.147c-.575-.284-.876-.134-1.563-.192a.348.348,0,0,1-.166-.064c-.392-.309-.335-.584-.55-1a.326.326,0,0,0-.262-.175,7.854,7.854,0,0,0-.923.083,1.607,1.607,0,0,1-.518-.121.309.309,0,0,0-.386.185c-.073.186-.153.348-.463.32-.275-.026-.36-.207-.46-.409a.311.311,0,0,0-.313-.169l-.733.073a.316.316,0,0,1-.345-.3c-.032-.543.1-.456.279-.735a.313.313,0,0,0-.081-.416c-.271-.2-.569-.35-.661-.769.017-.026.051-.09.064-.068l.524-.339.04-.019a2.051,2.051,0,0,0,.524-.288.314.314,0,0,0,.105-.309c-.269-1.332-1.509-.693-2.343-1.194a2.475,2.475,0,0,1-.925-.953c-.867-1.4-3.63.527-3.711-1.432-.019-.409.386-.688.2-.987-.5-.5-1.854-.051-2.281.153-.49.224-1.435.948-2.019.669-.364-.226-.109-.013-.32-.469-.7-1.477-1.767-.292-2.737.015a4.952,4.952,0,0,1-1.49.1.312.312,0,0,0-.252.147c-.727,1.194-.335,1.511-.635,2.136a.306.306,0,0,1-.294.183c-.808-.047-2.083-1.051-1.074-2a.314.314,0,0,0-.141-.539l-.2-.041c-1.085-.224-.776-.9-.983-1.7-.4-1.535-1.629-.778-2.406-1.123a.279.279,0,0,1-.147-.16c-.119-.332,0-.529-.311-.827s-.5-.166-.84-.431a1.145,1.145,0,0,1-.409-.891.315.315,0,0,0-.313-.294h-.885a1.2,1.2,0,0,1-.725.006.335.335,0,0,0-.062-.006h-.735a.311.311,0,0,0-.305.252c-.141.706.092,1-1.43,1.074-1.111.051-1.243.5-1.594,1.354-.55-.106-.522-.23-.45-.514a.315.315,0,0,0-.3-.39c-.729-.008-.512.034-1.01.446a.259.259,0,0,1-.1.058,2.284,2.284,0,0,1-1.844-.5c-.776-.64-.757-.1-1.626-.017a.327.327,0,0,1-.294-.128l-.29-.409c-.232-.258-.017-.073-.252-.226-.622.2-.388.322-.65.671a.324.324,0,0,1-.23.124c-.983.058-1.087-.311-1.767-.326a.311.311,0,0,0-.307.224c-.107.364-.153.569-.676.441-.5-.122-.661-.422-1.017-.348a.3.3,0,0,1-.335-.183c-.077-.171-.16-.364-.243-.524a1.307,1.307,0,0,0-.433-.565.308.308,0,0,0-.435.1c-.358.6-.164.77-.441,1.541-.316.868-.7.968-1.1.959a.306.306,0,0,0-.316.29,1.991,1.991,0,0,1-.26,1.106.322.322,0,0,1-.454.077c-.443-.343.023-.733-1.125-.821-.855-.068-.7.377-1.91.39a1.889,1.889,0,0,0-1.038.169c-1.381.648-.179,1.1-2.059,1.253a.312.312,0,0,0-.245.156c-.512.891-.294.61-1.55.759-1.39.168-.652,1.059-.946,1.441-.224.2-.143.17-.752.132-.915-.06-1.479-.4-2.093.446-.767,1.072-1.658.431-2.36,1.128a.326.326,0,0,0-.087.2c-.025.624.2.4.326.868.228.787-.5,1.445.445,1.876.431.2.492.109.814.33a.308.308,0,0,1,.136.23l.083.927a.294.294,0,0,1-.115.271,1.828,1.828,0,0,1-1.362.06,5.663,5.663,0,0,1-.929-.633.313.313,0,0,0-.369.013c-.181.156.055.247-.565.413-.45.119-.8-.019-1.17.23-.341.716.324.661.471,1.368a.312.312,0,0,1-.333.377,15.662,15.662,0,0,0-1.616-.277,2.648,2.648,0,0,0-1.013.153c-.369.151-.411.192-.552.454a.317.317,0,0,1-.29.166,6.031,6.031,0,0,1-.921-.151.313.313,0,0,0-.335.211c-.068.2-.134.413-.205.6-.181.49-.181.448-.737.537-.224.036-1.78.61-3.263,1.17C186.542,434.7,198.709,421.072,222.525,421.072Zm7.77,50.685c1.275-.959,3.084-2.179,3.637-1.969,1.9.72,2.211-.868,3.295.518.878,1.125,1.051.39,1.763.207a.326.326,0,0,1,.3.072c.215.2.132.23.365.454-.177.166-.058.094-.333.2-3.295.32-4.8-.1-8.752,1.064A.312.312,0,0,1,230.3,471.757Zm-2.407-.23a.313.313,0,0,1-.5-.335,13.085,13.085,0,0,1,.831-2.078c.665-.819,2.419-.882,2.771.4a.316.316,0,0,1-.183.371A13.072,13.072,0,0,0,227.888,471.527Zm-18.911-1.582a.31.31,0,0,1-.023-.558,1.59,1.59,0,0,0,.416-.305c.661-.7,1-.914,1.3-.97a.316.316,0,0,1,.339.179,4.563,4.563,0,0,0,.9,1.3c.706.674.908.241,1.288-.143a.317.317,0,0,1,.343-.07,33.042,33.042,0,0,1,3.737,2.243,5.655,5.655,0,0,1,2.532,3.649c-.324-.256-.633-.748-.989-1.087-1.948-1.9-4.884-2.364-7.358-3.2A21.5,21.5,0,0,1,208.978,469.945Zm.288,1.861a26.889,26.889,0,0,1-3.892-.362.311.311,0,0,1-.175-.482,2.033,2.033,0,0,1,.885-.721c.8-.422,1.094-.559,1.59-.252.311.194,1.16.787,1.79,1.255A.312.312,0,0,1,209.266,471.806Zm7.646-1.7a.313.313,0,0,1,.138-.588,5.72,5.72,0,0,1,4,1.533,9.689,9.689,0,0,1,1.13,1.9.313.313,0,0,1-.514.345A17.332,17.332,0,0,0,216.912,470.109Zm6.715,18.449c-.245,1.371-5.15,2.69-24.485,6.135a31.818,31.818,0,0,0-8.789,2.741,3.3,3.3,0,0,1-4.5-1.594c-3.285-7.4-4.805-16.2-4.873-25.649a.316.316,0,0,1,.237-.307.78.78,0,0,1,.91.224c.109.147.249.414.4.623a.3.3,0,0,0,.145.105l2.076.78c.023.041.045.089.073.138-.034.757.765.241,1.166.938.305.522.117.949.241,1.381a.32.32,0,0,0,.345.235c.183-.021.234-.124.377-.318.831-1.134,1.46.138,2.087-.343a.3.3,0,0,0,.083-.1c.3-.569-.164-.985.8-1.23.678-.177,1.234.083,1.784-.439.446-.428.377-1.085.846-1.262.674-.252.729.205.819.62a.313.313,0,0,0,.575.09c.166-.271.313-.6.731-.689.652-.141.831.469,1.682.262a.324.324,0,0,0,.239-.243c.1-.477-.087-.882.671-.825.866.064.426.311,1.381.134a.321.321,0,0,1,.341.17l.2.4c.863.147.548-.367,1.059-.927,1.162-1.277,3.278-.72,3.221,1.055a.318.318,0,0,1-.49.262l-.023-.017a.313.313,0,0,0-.413.461c.055.066.105.121.149.166.5.5.469-.028.81.763a1.565,1.565,0,0,0,.518.776.306.306,0,0,0,.375-.009,1.075,1.075,0,0,0,.309-.631.314.314,0,0,1,.343-.243c.725.083,1.645.226,2.411.337,2.541.365,5.608.509,7.93,1.358a6.248,6.248,0,0,1,4.221,5.056c.026.281-.119,3.168-.175,3.393-1.2,4.64-6.631,3.681-11.242,4.6a5.866,5.866,0,0,0-1.579.426.313.313,0,0,0,.132.593C210.358,488.057,223.9,487.026,223.627,488.558Zm1.119-15.379-.313-.665c-.607-1.39-2.611-4.086-3.029-5.09a.3.3,0,0,1,.06-.322c.784-.808,1.8-.578,2.7.064a7.817,7.817,0,0,1,1.042.959c.51.533.318.708.929.721a.317.317,0,0,1,.307.362c-.275,1.833-1.424,2.242-1.409,4.284A1.034,1.034,0,0,1,224.746,473.179Zm32.79,26.009a7.755,7.755,0,0,1-8.384,3.85c-15.209-3.221-29.087-4.333-20.506-9,2.37-1.289,27.075-7.571,12.058-7.571-7.655,0-10.4-3.259-11.73-4.137a.314.314,0,0,0-.46.39,4.893,4.893,0,0,1,.311.708c-.224-.128-.068,0-.288-.2a2.026,2.026,0,0,1-.2-.23c-1.17-1.547-.959-2.854-.678-4.511a.314.314,0,0,0-.473-.322,1.987,1.987,0,0,1-.629.315c1.7-1.535,3.212-4.133,4.813-4.917,2.6-1.268,6.859-.742,9.937-1.32,1.066-.2,1.272-1.125,2.419-2.029.531-.411.836.136,1.249.531.738.716,1.857-.192,3.266,1.17.38.367.633,1.047,1.221.923.686-.151.6-.974,1.14-1.2,1.362-.635,1.211,2.038,1.518,2.643.192.386.087.258.364.413.531-.422.371-2.259.995-3.249a3.413,3.413,0,0,1,2.728-1.458l.22-.147c.023-.013.055-.024.073-.038s.192-.064.228-.073a5.441,5.441,0,0,1,.644-.073c1.66-.22,1.628.686,2.385.55a.317.317,0,0,0,.147-.077l2.106-1.933a1.319,1.319,0,0,1,.262.053c.8.273.339,2.093,1.207,1.343.463-.4.354-.9.588-1.385q.008.653.009,1.307C264.073,480.7,262.063,490.99,257.536,499.188Z" transform="translate(0 0)"/><g transform="translate(289.237 427.316)"><path class="a" d="M266.312,480.587a16.631,16.631,0,0,0,11.792-4.8c3.368-3.2,5.979-7.75,7.748-13.73l1.181.085q-.506,2.526-1.516,9.854c-.674,4.886-1.1,8.761-1.349,11.624H234.306v-.674L268.671,429.8l-10.36.083a44.712,44.712,0,0,0-8.254.674,15.49,15.49,0,0,0-5.474,2.023,13.185,13.185,0,0,0-3.705,4.042,35.031,35.031,0,0,0-3.033,7.748l-1.012-.252c.252-2.106.5-4.547.674-7.243s.337-6.148.42-10.36a50.966,50.966,0,0,0,6.74.422c3.705.085,9.012.168,15.835.168h24.594v.5l-33.185,52.475c1.936.168,4.042.252,6.233.337s4.969.085,8.254.085Z" transform="translate(-234.306 -420.954)"/><path class="a" d="M281.911,484.628v1.262c-1.1-.085-2.443-.168-4.127-.168h-9.771c-1.684,0-3.033,0-4.127.083v-1.262l.5-.085a2.658,2.658,0,0,0,2.021-1.264c.252-.59.337-2.611.337-6.064V435.269a6.836,6.836,0,0,0-.252-2.106,6.442,6.442,0,0,0-.757-1.516l-2.191-3.116v-.42q3.032-.633,7.833-2.023c3.2-.927,5.813-1.769,7.75-2.526l.42.168c-.083,1.181-.168,3.118-.25,5.9s-.085,5.642-.085,8.59v39.166c0,3.453.085,5.474.335,6.064a2.662,2.662,0,0,0,2.023,1.264Z" transform="translate(-208.463 -423.562)"/><path class="a" d="M283.029,475.738a8.624,8.624,0,0,1-6.4-2.528,8.888,8.888,0,0,1-2.526-6.569,6.034,6.034,0,0,1,1.262-3.96c.844-1.01,2.78-2.191,5.9-3.538l11.287-4.8v-6.823a5.379,5.379,0,0,0-1.854-4.3,7.469,7.469,0,0,0-5.054-1.684,3.486,3.486,0,0,0-2.611.842,3.792,3.792,0,0,0-.842,2.779,17.115,17.115,0,0,0,.252,2.782,23.194,23.194,0,0,0,.59,2.779,33.5,33.5,0,0,1-3.875.842,25.954,25.954,0,0,1-3.62.5.462.462,0,0,1-.422-.252,1.6,1.6,0,0,1-.168-.672A10.14,10.14,0,0,1,276.713,446a21.4,21.4,0,0,1,4.717-5.306,19.887,19.887,0,0,1,5.727-3.622,15.034,15.034,0,0,1,5.728-1.262,15.648,15.648,0,0,1,8.674,2.274,7.088,7.088,0,0,1,3.538,6.231v3.875c0,1.516-.083,3.875-.168,7.077-.085,2.946-.085,5.052-.085,6.316v3.285a4.323,4.323,0,0,0,.757,2.863,3.083,3.083,0,0,0,2.443.842,3.941,3.941,0,0,0,1.432-.252,7.965,7.965,0,0,0,1.432-.757l.254.168a9.2,9.2,0,0,1-3.033,5.644,8.318,8.318,0,0,1-5.9,2.526,10.654,10.654,0,0,1-5.811-1.516,9.5,9.5,0,0,1-3.622-4.715,19.635,19.635,0,0,1-4.885,4.8,8.481,8.481,0,0,1-4.38,1.264Zm9.351-20.047-3.538,2.7a7.392,7.392,0,0,0-2.106,2.274,5.642,5.642,0,0,0-.59,2.78,5.729,5.729,0,0,0,1.262,3.958,4.506,4.506,0,0,0,3.455,1.432h.757a2.517,2.517,0,0,0,.759-.168Z" transform="translate(-199.138 -412.735)"/><path class="a" d="M308.258,479.793a13.014,13.014,0,0,1-8.085-2.441,7.478,7.478,0,0,1-3.118-6.233V454.862c0-2.863,0-5.054.085-6.486l-3.453-4.295v-.337a78.465,78.465,0,0,0,8.254-5.728,96.415,96.415,0,0,0,7.412-6.316l.5.252c-.085.927-.17,2.274-.252,4.127s-.169,3.285-.169,4.38l12.8-.422a6.6,6.6,0,0,1-.844,2.78,8.048,8.048,0,0,1-1.6,2.443l-10.276-.168v22.488a3.4,3.4,0,0,0,1.516,3.031q1.514,1.012,5.052,1.012a16.733,16.733,0,0,0,3.707-.42,11.513,11.513,0,0,0,3.2-1.264l.337.42a20.158,20.158,0,0,1-6.486,6.823,15.124,15.124,0,0,1-8.339,2.528Z" transform="translate(-181.83 -416.37)"/><path class="a" d="M350.812,474.3v1.264c-1.095-.085-2.441-.17-4.127-.17h-9.769c-1.686,0-3.033,0-4.127.085v-1.264l.5-.085a2.652,2.652,0,0,0,2.021-1.262c.252-.59.337-2.613.337-6.066V455.518c0-4.127-.59-7.245-1.769-9.266a5.758,5.758,0,0,0-5.306-3.031,12.546,12.546,0,0,0-1.854.168,8.82,8.82,0,0,0-1.6.422v23.077c0,3.453.085,5.476.335,6.066a2.666,2.666,0,0,0,2.023,1.262l.5.085v1.264c-1.094-.085-2.443-.17-4.127-.17h-9.771c-1.684,0-3.031,0-4.127.085v-1.264l.5-.085a2.645,2.645,0,0,0,2.021-1.262c.254-.59.337-2.613.337-6.066V448.526a6.526,6.526,0,0,0-.252-2.019,8.865,8.865,0,0,0-.757-1.6l-1.769-3.033v-.42c2.106-.59,4.717-1.516,7.75-2.7s5.474-2.191,7.243-3.033l.42.17a12.106,12.106,0,0,0-.251,2.019q-.127,1.644-.254,4.549a41.743,41.743,0,0,1,7.582-5.052,13.155,13.155,0,0,1,5.559-1.516,8.7,8.7,0,0,1,6.821,3.116,11.428,11.428,0,0,1,2.78,7.833v19.794c0,3.453.085,5.474.337,6.064a2.658,2.658,0,0,0,2.021,1.264Z" transform="translate(-167.447 -412.814)"/><path class="a" d="M350.79,483.225v1.264c-1.094-.085-2.441-.169-4.125-.169h-9.771c-1.686,0-3.033,0-4.127.085V483.14l.5-.083a2.658,2.658,0,0,0,2.021-1.264c.252-.59.337-2.611.337-6.064V457.452a6.6,6.6,0,0,0-.252-2.021,9.016,9.016,0,0,0-.759-1.6L332.85,450.8v-.42c2.106-.59,4.717-1.516,7.75-2.7s5.474-2.191,7.245-3.033l.42.17c-.085,1.094-.169,2.778-.252,4.969s-.085,4.8-.085,7.748v18.11c0,3.453.085,5.474.337,6.064a2.658,2.658,0,0,0,2.021,1.264ZM347,427.549a6.716,6.716,0,1,1-4.8-2.019A6.612,6.612,0,0,1,347,427.549Z" transform="translate(-147.294 -421.823)"/><path class="a" d="M369.5,483.258h-7.158c-2.358,0-6.148,0-11.287.085v-1.432a14.711,14.711,0,0,0,4.717-.759,3.963,3.963,0,0,0,2.191-2.441,20.665,20.665,0,0,0,.673-5.476c.085-2.694.17-8.337.17-16.846v-2.526c0-8.507-.085-14.149-.17-16.846a20.661,20.661,0,0,0-.673-5.474,3.852,3.852,0,0,0-2.106-2.441,14.134,14.134,0,0,0-4.634-.759v-1.432c2.78.085,5.306.085,7.665.085h13.478c2.441,0,4.969-.085,7.58-.17v1.432a14.111,14.111,0,0,0-4.632.759,3.842,3.842,0,0,0-2.106,2.441,20.637,20.637,0,0,0-.674,5.474c-.085,2.7-.168,8.256-.168,16.763V473.15a5.742,5.742,0,0,0,2.611,5.308c1.769,1.094,4.717,1.6,8.844,1.6a14.734,14.734,0,0,0,10.865-4.38c2.948-2.948,5.474-7.5,7.5-13.73l1.012.254c-.507,2.948-.927,6.148-1.349,9.517s-.842,7.16-1.264,11.455c-2.1,0-6.906,0-14.4-.083s-12.887-.085-16.172-.085Z" transform="translate(-131.133 -420.678)"/><path class="a" d="M419.654,472.249c-.17.085-2.274.59-6.4,1.6s-6.992,1.769-8.676,2.358l-.337-.17q.127-1.136.252-2.526c.085-.927.17-2.021.254-3.2a29.85,29.85,0,0,1-6.655,4.295,15.144,15.144,0,0,1-6.233,1.6,8.2,8.2,0,0,1-6.653-3.033,12.145,12.145,0,0,1-2.526-8V443.95a3.505,3.505,0,0,0-.59-2.276,3.924,3.924,0,0,0-2.021-1.179l-.842-.252v-1.012a60.168,60.168,0,0,0,8-1.094c2.863-.59,5.476-1.264,7.917-2.021l.337.168c-.083,1.938-.168,4.212-.252,6.74s-.085,5.559-.085,9.1v6.486c0,4.295.5,7.158,1.516,8.674s2.78,2.276,5.222,2.276h1.854a3.882,3.882,0,0,0,1.179-.17V443.781a3.485,3.485,0,0,0-.59-2.274,3.9,3.9,0,0,0-2.021-1.179l-.842-.252v-1.012a56.107,56.107,0,0,0,7.832-1.094q4.171-.884,7.833-2.021l.337.168c-.083,1.938-.168,4.212-.252,6.738s-.085,5.559-.085,9.1v15.582a5.226,5.226,0,0,0,.507,2.7,2.258,2.258,0,0,0,1.684.927l.59.085Z" transform="translate(-106.237 -412.616)"/><path class="a" d="M442.665,477.844a16.167,16.167,0,0,1-2.191,8.085,20.03,20.03,0,0,1-6.231,6.57,26.206,26.206,0,0,1-7.75,3.621,31.928,31.928,0,0,1-9.012,1.264c-4.8,0-8.676-.925-11.707-2.78s-4.549-4.295-4.549-7.243a6.235,6.235,0,0,1,2.526-4.8,16.984,16.984,0,0,1,6.655-3.285,9.4,9.4,0,0,1-4.38-3.033,7.363,7.363,0,0,1-1.769-4.8,7.979,7.979,0,0,1,1.684-4.3,33.4,33.4,0,0,1,6.064-6.064,15.234,15.234,0,0,1-5.9-4.886,11.1,11.1,0,0,1-2.274-6.568,12.365,12.365,0,0,1,4.717-9.856,17.147,17.147,0,0,1,11.37-3.958,17.7,17.7,0,0,1,4.717.588,19.235,19.235,0,0,1,4.3,1.771c2.189-.422,4.8-.842,7.748-1.349s4.549-.757,4.8-.757a1.454,1.454,0,0,1,1.094.42,1.753,1.753,0,0,1,.337,1.264,5.627,5.627,0,0,1-.59,2.274,9.433,9.433,0,0,1-1.516,2.358,20.749,20.749,0,0,0-3.368-.59c-1.432-.168-2.863-.252-4.3-.335a12.609,12.609,0,0,1,2.276,3.788,10.928,10.928,0,0,1,.757,3.875,11.921,11.921,0,0,1-4.717,9.686A17.86,17.86,0,0,1,419.84,462.6a17.07,17.07,0,0,1-3.622-.337,23.4,23.4,0,0,1-3.453-1.012,5.86,5.86,0,0,0-.5,1.432,6.467,6.467,0,0,0-.169,1.264,2.9,2.9,0,0,0,3.118,3.116l15.75-.168a12.092,12.092,0,0,1,8.337,3.033,9.54,9.54,0,0,1,3.455,7.411Zm-8.844,7.58a5.27,5.27,0,0,0-2.021-4.464q-2.02-1.517-6.064-1.516l-15.162.252c-.085.422-.168.842-.252,1.349a9.6,9.6,0,0,0-.085,1.6,10.582,10.582,0,0,0,3.538,8.254,14.428,14.428,0,0,0,17.1.759,7.671,7.671,0,0,0,3.033-6.318Zm-18.613-35.881a21.76,21.76,0,0,0,1.347,8.422q1.39,3.286,3.79,3.285c1.347,0,2.443-1.01,3.2-3.033a25.111,25.111,0,0,0,1.179-8.507,21.056,21.056,0,0,0-1.347-8.337c-.927-2.106-2.191-3.2-3.79-3.2-1.349,0-2.358,1.01-3.118,3.031a24.879,24.879,0,0,0-1.094,8.424Z" transform="translate(-86.796 -412.735)"/></g><g transform="translate(289.237 495.633)"><path class="b" d="M241.752,474.886c-.145,0-.467-.013-.968-.043s-1.074-.057-1.722-.077-1.258-.032-1.839-.032c-.29,0-.535.008-.731.021s-.407.032-.631.057-.533.032-.925.032a1.241,1.241,0,0,1-.458-.068.232.232,0,0,1,0-.448,4.832,4.832,0,0,1,.544-.121,2.018,2.018,0,0,0,1.143-.507,1.687,1.687,0,0,0,.315-1.143v-9.9a1.6,1.6,0,0,0-.315-1.123,2.128,2.128,0,0,0-1.143-.484,2.346,2.346,0,0,1-.544-.143.257.257,0,0,1-.173-.252.228.228,0,0,1,.173-.22,1.334,1.334,0,0,1,.458-.064c.377,0,.678,0,.9.009l.663.023c.219.008.5.009.85.009.234,0,.527-.006.882-.021s.727-.036,1.111-.068.731-.049,1.045-.064.539-.021.686-.021a11.707,11.707,0,0,1,3.788.537,6.7,6.7,0,0,1,2.549,1.5,5.944,5.944,0,0,1,1.449,2.223,7.76,7.76,0,0,1,.469,2.714,7.538,7.538,0,0,1-.588,2.971,7.851,7.851,0,0,1-1.633,2.451,7.643,7.643,0,0,1-2.419,1.663A7.33,7.33,0,0,1,241.752,474.886Zm-.262-.769a5.441,5.441,0,0,0,3.006-.838,5.634,5.634,0,0,0,2.036-2.308,7.554,7.554,0,0,0,.729-3.389,7.25,7.25,0,0,0-.522-2.824,6.166,6.166,0,0,0-3.355-3.389,5.651,5.651,0,0,0-2.2-.452c-.624,0-1.158.017-1.6.057a1.819,1.819,0,0,0-1.013.339,1.162,1.162,0,0,0-.348.948v9.81a1.7,1.7,0,0,0,.478,1.319,2.446,2.446,0,0,0,1.232.584A8.262,8.262,0,0,0,241.491,474.117Z" transform="translate(-234.306 -459.468)"/><path class="b" d="M252.749,475.091a7.353,7.353,0,0,1-2.743-.516,7.024,7.024,0,0,1-3.9-3.762,7.232,7.232,0,0,1-.588-2.956,8.643,8.643,0,0,1,.48-2.873,7.4,7.4,0,0,1,1.415-2.451,6.739,6.739,0,0,1,2.33-1.716,7.643,7.643,0,0,1,3.2-.639,7.386,7.386,0,0,1,2.745.516,7.03,7.03,0,0,1,3.9,3.762,7.246,7.246,0,0,1,.59,2.957,8.723,8.723,0,0,1-.478,2.861,7.478,7.478,0,0,1-1.417,2.464,6.8,6.8,0,0,1-2.33,1.714A7.574,7.574,0,0,1,252.749,475.091Zm.328-.88a5.057,5.057,0,0,0,2.788-.712,4.365,4.365,0,0,0,1.665-2,7.512,7.512,0,0,0,.556-3,11.386,11.386,0,0,0-.349-2.861,7.677,7.677,0,0,0-1.034-2.364,4.979,4.979,0,0,0-1.709-1.594,4.848,4.848,0,0,0-2.4-.573,5.029,5.029,0,0,0-2.745.7,4.42,4.42,0,0,0-1.677,1.967,7.273,7.273,0,0,0-.567,2.982,11.831,11.831,0,0,0,.337,2.882,7.615,7.615,0,0,0,1.025,2.375,4.989,4.989,0,0,0,1.71,1.618A4.755,4.755,0,0,0,253.077,474.211Z" transform="translate(-224.397 -459.52)"/><path class="b" d="M256.983,474.812a1.469,1.469,0,0,1-.458-.057c-.115-.036-.173-.1-.173-.185a.271.271,0,0,1,.173-.243,2.174,2.174,0,0,1,.546-.153,1.521,1.521,0,0,0,.891-.527,2.349,2.349,0,0,0,.458-1.19q.263-1.975.458-3.771t.316-3.234q.119-1.438.119-2.362v-.375a2.783,2.783,0,0,0-.021-.352c-.015-.117-.038-.239-.066-.364a.693.693,0,0,0-.262-.364,2.24,2.24,0,0,0-.761-.448,6,6,0,0,0-.872-.211.715.715,0,0,1-.348-.164.37.37,0,0,1-.13-.277c0-.119.068-.186.207-.207a3.6,3.6,0,0,1,.533-.036c.145,0,.367.011.663.024s.622.036.97.064.671.055.968.068.52.023.665.023a.4.4,0,0,1,.262.089.455.455,0,0,1,.151.264c.073.264.147.541.22.833a7.461,7.461,0,0,0,.26.859l3.44,8.821a.306.306,0,0,0,.241.188.226.226,0,0,0,.26-.121l4.291-9.021c.073-.249.145-.527.217-.836s.132-.578.175-.812c.045-.192.117-.286.217-.286h.784a12.043,12.043,0,0,0,1.385-.089,10.654,10.654,0,0,1,1.1-.089,1.439,1.439,0,0,1,.283.036c.115.021.175.081.175.185a.282.282,0,0,1-.121.243,2.461,2.461,0,0,1-.446.22c-.188.072-.4.153-.631.243s-.45.173-.654.262a.86.86,0,0,0-.371.3.766.766,0,0,0-.153.454c0,1.025.021,1.987.055,2.891s.077,1.767.121,2.594.094,1.646.153,2.454.109,1.628.153,2.462a1.5,1.5,0,0,0,.435,1.047,2.428,2.428,0,0,0,1.2.516,2.18,2.18,0,0,1,.544.153.273.273,0,0,1,.175.243c0,.089-.06.149-.175.185a1.469,1.469,0,0,1-.458.057c-.392,0-.714-.009-.968-.032s-.5-.041-.729-.057-.516-.021-.85-.021c-.29,0-.535.008-.731.021s-.407.032-.631.057-.533.032-.925.032a1.452,1.452,0,0,1-.458-.057c-.117-.036-.175-.1-.175-.185a.286.286,0,0,1,.175-.252,1.449,1.449,0,0,1,.544-.143,1.183,1.183,0,0,0,.87-.452,2.1,2.1,0,0,0,.239-1.134c0-1.053-.011-2.008-.032-2.859s-.053-1.69-.1-2.519-.087-1.731-.13-2.714c-.015-.16-.058-.239-.132-.232s-.145.085-.217.232l-5.009,10.315a.207.207,0,0,1-.2.122.177.177,0,0,1-.2-.143q-.85-2.574-1.82-5.073t-2.189-5.376a.152.152,0,0,0-.151-.109.121.121,0,0,0-.132.109c-.13,1.027-.249,1.967-.358,2.826s-.192,1.707-.25,2.539-.089,1.754-.089,2.75a1.775,1.775,0,0,0,.371,1.091,1.651,1.651,0,0,0,1.045.627,2.16,2.16,0,0,1,.543.153.267.267,0,0,1,.175.243c0,.089-.057.149-.175.185a1.448,1.448,0,0,1-.456.057,8.509,8.509,0,0,1-.882-.032c-.2-.025-.371-.041-.524-.057s-.367-.021-.642-.021c-.26,0-.463.008-.61.021s-.311.032-.5.057A8.207,8.207,0,0,1,256.983,474.812Z" transform="translate(-214.824 -459.438)"/><path class="b" d="M284.807,475.018c-.625,0-1.228,0-1.808-.009l-1.69-.023c-.543-.009-1.074-.017-1.588-.025s-1.013-.011-1.492-.011c-.435,0-.872,0-1.305.011s-.865.015-1.287.015h-1.677q-.088,0-.153-.311a1.424,1.424,0,0,1,.205-.473q.209-.365.514-.8t.542-.769q1.111-1.54,2.05-2.829t1.806-2.507c.58-.812,1.172-1.658,1.774-2.53s1.253-1.835,1.95-2.893a.315.315,0,0,0,.064-.085.205.205,0,0,0,.023-.089.129.129,0,0,0-.087-.111,1.2,1.2,0,0,0-.328-.068q-.588-.02-1.447-.032c-.575-.008-1.151-.009-1.731-.009h-1.221a10.005,10.005,0,0,0-1,.041,2.9,2.9,0,0,0-1.177.431,2.245,2.245,0,0,0-.957,1.2c-.058.132-.136.286-.23.454a.427.427,0,0,1-.382.252.159.159,0,0,1-.139-.079.262.262,0,0,1-.056-.164.924.924,0,0,1,.056-.3c.036-.109.068-.209.1-.3.057-.162.126-.386.205-.671s.16-.6.239-.944a5.518,5.518,0,0,0,.143-.979.383.383,0,0,1,.13-.311.417.417,0,0,1,.2-.064.739.739,0,0,1,.294.111c.139.072.266.139.381.2a6.044,6.044,0,0,0,.774.22,4.706,4.706,0,0,0,1.1.132h4.061c.428,0,.85,0,1.262-.011s.825-.013,1.232-.021.812-.017,1.219-.036c.072,0,.141.055.207.156s.075.183.032.243l-1.328,1.782q-1.133,1.537-2.048,2.792t-1.742,2.43c-.552.787-1.115,1.607-1.688,2.466s-1.2,1.812-1.882,2.871a.421.421,0,0,0-.066.264.446.446,0,0,0,.066.241.252.252,0,0,0,.173.132c.318.028.69.055,1.11.075s.872.036,1.351.036q.74,0,1.524-.036c.522-.021,1.04-.047,1.547-.075a3.155,3.155,0,0,0,2.7-2.4.889.889,0,0,1,.185-.3.4.4,0,0,1,.294-.164c.13,0,.2.1.2.284a3.977,3.977,0,0,1-.087.516c-.058.288-.13.614-.219.98s-.177.714-.271,1.034a6.653,6.653,0,0,1-.228.684c-.045.089-.092.171-.143.252A.274.274,0,0,1,284.807,475.018Z" transform="translate(-199.397 -459.643)"/><path class="b" d="M283.376,475.122a1.125,1.125,0,0,1-.458-.077c-.117-.051-.173-.121-.173-.207a.337.337,0,0,1,.185-.277,2.18,2.18,0,0,1,.533-.228,3.535,3.535,0,0,0,1.045-.531,2.721,2.721,0,0,0,.827-1.166q.613-1.4,1.123-2.639t.968-2.419q.458-1.187.948-2.475t1.036-2.8c.072-.205.136-.409.2-.616a3.125,3.125,0,0,0,.107-.659c.13-.045.262-.089.392-.132a1.61,1.61,0,0,0,.392-.2.7.7,0,0,0,.273-.394,1.247,1.247,0,0,1,.141-.354.078.078,0,0,1,.055-.021c.021,0,.04.015.055.043a1.105,1.105,0,0,1,.075.22c.023.089.049.175.077.264q.523,1.673,1.087,3.41c.379,1.16.746,2.276,1.1,3.355s.682,2.046.98,2.9.533,1.55.706,2.081a4.639,4.639,0,0,0,.654,1.319,2.084,2.084,0,0,0,.731.616,3.656,3.656,0,0,0,.816.264,1.151,1.151,0,0,1,.544.209.392.392,0,0,1,.175.3c0,.089-.058.147-.175.179a1.99,1.99,0,0,1-.458.041c-.2,0-.478-.009-.825-.032s-.72-.045-1.111-.068-.755-.032-1.089-.032h-.85c-.29,0-.56,0-.806.011s-.458.011-.631.011a1.274,1.274,0,0,1-.458-.068c-.117-.043-.175-.107-.175-.2,0-.1.073-.192.219-.264a1.593,1.593,0,0,1,.5-.153,2.1,2.1,0,0,0,1.025-.375.8.8,0,0,0,.3-.616,4.733,4.733,0,0,0-.141-.959q-.141-.624-.337-1.343c-.132-.473-.254-.9-.371-1.264-.03-.119-.083-.187-.164-.207a1.856,1.856,0,0,0-.424-.036h-4.116a.312.312,0,0,0-.185.079.738.738,0,0,0-.186.32c-.041.147-.115.377-.217.691s-.2.648-.305,1-.188.667-.262.948a3.02,3.02,0,0,0-.107.527,1.015,1.015,0,0,0,.369.8,2.157,2.157,0,0,0,.893.452c.48.132.718.277.718.439,0,.089-.056.153-.173.188a1.6,1.6,0,0,1-.458.053c-.188,0-.463-.008-.827-.021s-.748-.023-1.155-.023c-.478,0-.944.023-1.392.064A11.794,11.794,0,0,1,283.376,475.122Zm5.1-6.312h3.376c.2,0,.305-.038.305-.109a.508.508,0,0,0-.011-.1,1,1,0,0,0-.032-.122l-1.7-5.367c-.087-.264-.151-.4-.2-.4q-.042,0-.175.373l-1.98,5.389a.739.739,0,0,0-.045.175.125.125,0,0,0,.121.132A1.6,1.6,0,0,0,288.472,468.809Z" transform="translate(-191.5 -459.747)"/><path class="b" d="M301.738,475.138a5.008,5.008,0,0,1-1.686-.275,4.517,4.517,0,0,1-1.384-.784,1.543,1.543,0,0,1-.162-.2.963.963,0,0,1-.121-.241,5.917,5.917,0,0,1-.141-1.143q-.031-.706-.077-1.166a.255.255,0,0,1,.13-.232.587.587,0,0,1,.307-.077.443.443,0,0,1,.217.057.228.228,0,0,1,.13.185,4.572,4.572,0,0,0,1.3,2.419,2.744,2.744,0,0,0,1.8.727,2.689,2.689,0,0,0,1.351-.332,2.344,2.344,0,0,0,.925-.932,2.852,2.852,0,0,0,.339-1.418,3.157,3.157,0,0,0-.3-1.464,2.985,2.985,0,0,0-.836-.979c-.364-.279-.808-.576-1.33-.9q-.848-.548-1.676-1.111a5.549,5.549,0,0,1-1.373-1.3,2.943,2.943,0,0,1-.543-1.791,4.069,4.069,0,0,1,.5-2.023,3.617,3.617,0,0,1,1.513-1.443,5.355,5.355,0,0,1,2.537-.539,5.011,5.011,0,0,1,1.36.164,7.738,7.738,0,0,1,.927.32.672.672,0,0,1,.294.219.876.876,0,0,1,.162.331c.087.309.183.657.283,1.053a4.574,4.574,0,0,1,.154,1.123c0,.164-.109.243-.326.243a.885.885,0,0,1-.382-.087.406.406,0,0,1-.23-.22,5.206,5.206,0,0,0-1.066-1.782,2.079,2.079,0,0,0-1.547-.616,3.03,3.03,0,0,0-1.219.243,2.036,2.036,0,0,0-.925.791,2.651,2.651,0,0,0-.36,1.475,1.892,1.892,0,0,0,.424,1.2,5.06,5.06,0,0,0,1.123,1.023q.7.486,1.5.991c.507.309,1,.644,1.49,1.012a4.751,4.751,0,0,1,1.2,1.311,3.466,3.466,0,0,1,.469,1.859,4.353,4.353,0,0,1-.59,2.276,3.91,3.91,0,0,1-1.654,1.507A5.636,5.636,0,0,1,301.738,475.138Z" transform="translate(-177.872 -459.52)"/><path class="b" d="M309.777,475.2a1.448,1.448,0,0,1-.456-.057c-.117-.036-.175-.1-.175-.185a.27.27,0,0,1,.175-.243,2.16,2.16,0,0,1,.542-.153,2.612,2.612,0,0,0,1.264-.539,1.5,1.5,0,0,0,.435-1.179v-8.535q0-1.009-.042-1.548a2.562,2.562,0,0,0-.143-.759.359.359,0,0,0-.273-.243,3.467,3.467,0,0,0-.641-.077q-.339-.011-.9-.011h-1.023a2.758,2.758,0,0,0-1.036.209,1.458,1.458,0,0,0-.752.65,3.743,3.743,0,0,1-.217.32,2.278,2.278,0,0,1-.328.364.537.537,0,0,1-.347.153.123.123,0,0,1-.122-.089.583.583,0,0,1-.032-.2.969.969,0,0,1,.109-.439,7.248,7.248,0,0,0,.446-1.132,7.709,7.709,0,0,0,.228-1.175c.03-.251.085-.4.164-.443a.476.476,0,0,1,.207-.064c.058,0,.151.087.273.264a3.529,3.529,0,0,1,.271.439.931.931,0,0,0,.6.332,4.133,4.133,0,0,0,.927.109h7.665a7.322,7.322,0,0,0,1.241-.089,3.561,3.561,0,0,0,.827-.243,1.729,1.729,0,0,0,.424-.284.593.593,0,0,1,.426-.153c.043,0,.079.053.109.164a1.364,1.364,0,0,1,.043.341,2.162,2.162,0,0,1-.032.307c-.023.132-.041.235-.057.307a4.394,4.394,0,0,1-.119.573,2.7,2.7,0,0,0-.077.307,3.133,3.133,0,0,0-.021.42v.264a1.378,1.378,0,0,1-.087.448c-.058.171-.145.256-.262.256s-.183-.081-.239-.241a5.507,5.507,0,0,1-.175-.663,1.093,1.093,0,0,0-.522-.737,2.928,2.928,0,0,0-1.481-.275h-2.2a1.549,1.549,0,0,0-.718.132c-.16.089-.262.309-.305.663a15.448,15.448,0,0,0-.066,1.735v8.644a1.457,1.457,0,0,0,.458,1.179,2.739,2.739,0,0,0,1.264.539,2.2,2.2,0,0,1,.544.153.271.271,0,0,1,.173.243c0,.089-.058.149-.173.185a1.476,1.476,0,0,1-.458.057c-.392,0-.716-.009-.968-.032s-.5-.041-.731-.057-.514-.021-.85-.021c-.362,0-.678.008-.946.021s-.546.032-.829.057S310.17,475.2,309.777,475.2Z" transform="translate(-171.21 -459.829)"/><path class="b" d="M315.076,475.122a1.125,1.125,0,0,1-.458-.077c-.117-.051-.173-.121-.173-.207a.337.337,0,0,1,.185-.277,2.18,2.18,0,0,1,.533-.228,3.534,3.534,0,0,0,1.045-.531,2.721,2.721,0,0,0,.827-1.166q.613-1.4,1.123-2.639t.968-2.419q.458-1.187.948-2.475t1.036-2.8c.072-.205.136-.409.2-.616a3.133,3.133,0,0,0,.107-.659c.13-.045.262-.089.392-.132a1.61,1.61,0,0,0,.392-.2.7.7,0,0,0,.273-.394,1.245,1.245,0,0,1,.141-.354.078.078,0,0,1,.055-.021c.021,0,.04.015.055.043a1.106,1.106,0,0,1,.075.22c.023.089.049.175.077.264q.523,1.673,1.087,3.41c.379,1.16.746,2.276,1.1,3.355s.682,2.046.98,2.9.533,1.55.706,2.081a4.639,4.639,0,0,0,.654,1.319,2.083,2.083,0,0,0,.731.616,3.655,3.655,0,0,0,.816.264,1.152,1.152,0,0,1,.544.209.393.393,0,0,1,.175.3c0,.089-.058.147-.175.179a1.991,1.991,0,0,1-.458.041c-.2,0-.478-.009-.825-.032s-.72-.045-1.111-.068-.755-.032-1.089-.032h-.85c-.29,0-.559,0-.806.011s-.458.011-.631.011a1.274,1.274,0,0,1-.458-.068c-.117-.043-.175-.107-.175-.2,0-.1.073-.192.219-.264a1.594,1.594,0,0,1,.5-.153,2.1,2.1,0,0,0,1.025-.375.8.8,0,0,0,.3-.616,4.73,4.73,0,0,0-.141-.959q-.141-.624-.337-1.343c-.132-.473-.254-.9-.371-1.264-.03-.119-.083-.187-.164-.207a1.856,1.856,0,0,0-.424-.036h-4.116a.312.312,0,0,0-.185.079.737.737,0,0,0-.186.32c-.041.147-.115.377-.217.691s-.2.648-.305,1-.188.667-.262.948a3.023,3.023,0,0,0-.107.527,1.014,1.014,0,0,0,.369.8,2.157,2.157,0,0,0,.893.452c.48.132.718.277.718.439,0,.089-.057.153-.171.188a1.62,1.62,0,0,1-.46.053c-.188,0-.463-.008-.827-.021s-.748-.023-1.155-.023c-.478,0-.944.023-1.392.064A11.8,11.8,0,0,1,315.076,475.122Zm5.1-6.312h3.376c.2,0,.305-.038.305-.109a.508.508,0,0,0-.011-.1,1,1,0,0,0-.032-.122l-1.7-5.367c-.087-.264-.151-.4-.2-.4q-.042,0-.175.373l-1.98,5.389a.741.741,0,0,0-.045.175.125.125,0,0,0,.121.132A1.6,1.6,0,0,0,320.171,468.809Z" transform="translate(-163.486 -459.747)"/><path class="b" d="M338.406,475.177a6.619,6.619,0,0,1-1.153-.1,3.051,3.051,0,0,1-1.852-1.091c-.348-.439-.682-.863-1-1.264s-.657-.87-1.013-1.4-.787-1.2-1.3-2.023a2.238,2.238,0,0,0-.936-.859,4.054,4.054,0,0,0-.948-.341,6.856,6.856,0,0,0-.772-.121.237.237,0,0,0-.252.109.68.68,0,0,0-.075.332V472.3a2.21,2.21,0,0,0,.328,1.217,1.609,1.609,0,0,0,1.132.674,2.159,2.159,0,0,1,.542.153.267.267,0,0,1,.175.243c0,.089-.057.149-.175.185a1.447,1.447,0,0,1-.456.057,7.288,7.288,0,0,1-.9-.041c-.211-.032-.4-.058-.567-.079a5.585,5.585,0,0,0-.665-.032c-.36,0-.686.011-.968.032s-.567.047-.848.079-.622.041-1.013.041a1.461,1.461,0,0,1-.458-.057c-.115-.036-.175-.1-.175-.185,0-.175.241-.307.72-.4a2.413,2.413,0,0,0,1.207-.507,1.516,1.516,0,0,0,.382-1.164v-9.373a7.8,7.8,0,0,0-.075-1.264.858.858,0,0,0-.349-.6,2.2,2.2,0,0,0-.9-.243,1.21,1.21,0,0,1-.544-.164.345.345,0,0,1-.175-.275c0-.089.06-.149.175-.188a1.6,1.6,0,0,1,.458-.053h.882c.2,0,.38,0,.556.009s.407.011.7.011c.275,0,.522-.011.74-.032s.46-.043.729-.057.612-.023,1.034-.023a6.2,6.2,0,0,1,3.649.9,3.123,3.123,0,0,1,1.251,2.707,3.473,3.473,0,0,1-.392,1.7,4.067,4.067,0,0,1-.979,1.2,6.421,6.421,0,0,1-1.2.791.088.088,0,0,0-.077.1.538.538,0,0,0,.077.186q.675,1.034,1.3,1.959a20.945,20.945,0,0,0,1.362,1.8,20.371,20.371,0,0,0,1.763,1.827,2.434,2.434,0,0,0,1.155.616,7.55,7.55,0,0,0,1.349.111c.219,0,.328.077.328.241a.523.523,0,0,1-.328.492,2.239,2.239,0,0,1-.74.22A5.664,5.664,0,0,1,338.406,475.177Zm-8.143-7.7a3.18,3.18,0,0,0,1.731-.46,3.235,3.235,0,0,0,1.132-1.211,3.282,3.282,0,0,0,.4-1.582,5.578,5.578,0,0,0-.228-1.652,2.15,2.15,0,0,0-.914-1.2,3.794,3.794,0,0,0-2.059-.454.913.913,0,0,0-.914.454,4.419,4.419,0,0,0-.262,1.6c-.013.367-.024.857-.032,1.481s-.011,1.375-.011,2.257c0,.365.1.588.305.661A2.654,2.654,0,0,0,330.263,467.475Z" transform="translate(-154.108 -459.448)"/><path class="b" d="M336.187,474.781a1.453,1.453,0,0,1-.458-.057c-.117-.036-.175-.1-.175-.185,0-.175.241-.307.72-.4a2.823,2.823,0,0,0,1.262-.507,1.351,1.351,0,0,0,.435-1.121v-9.942a1.576,1.576,0,0,0-.315-1.1,2.128,2.128,0,0,0-1.143-.484c-.48-.089-.718-.235-.718-.439,0-.089.057-.149.173-.188a1.591,1.591,0,0,1,.456-.053c.392,0,.716.008.97.021s.5.025.729.032.516.011.85.011.582,0,.784-.011.422-.017.656-.032.542-.021.936-.021a1.6,1.6,0,0,1,.456.053c.115.04.175.1.175.188a.316.316,0,0,1-.175.264,1.614,1.614,0,0,1-.543.175,2.464,2.464,0,0,0-1.177.484,1.416,1.416,0,0,0-.369,1.1v9.942a1.322,1.322,0,0,0,.456,1.121,2.979,2.979,0,0,0,1.262.507,2.173,2.173,0,0,1,.546.153.271.271,0,0,1,.173.243c0,.089-.058.149-.173.185a1.469,1.469,0,0,1-.458.057c-.392,0-.716-.009-.97-.032s-.5-.041-.729-.057-.516-.021-.85-.021c-.362,0-.678.008-.947.021s-.544.032-.827.057S336.579,474.781,336.187,474.781Z" transform="translate(-144.831 -459.406)"/><path class="b" d="M343.024,479.07q-2.246,0-2.245-1.079a1.021,1.021,0,0,1,.307-.7.825.825,0,0,1,.543-.332,1.288,1.288,0,0,1,.546.121,1.27,1.27,0,0,1,.478.431,2.654,2.654,0,0,0,.511.507.92.92,0,0,0,.512.153c.509,0,.874-.315,1.1-.936a7.73,7.73,0,0,0,.337-2.541V462.551a1.5,1.5,0,0,0-.326-1.091,2.205,2.205,0,0,0-1.111-.473q-.718-.133-.718-.439c0-.089.057-.149.173-.188a1.605,1.605,0,0,1,.458-.053c.392,0,.714.008.97.021s.5.025.727.032.516.011.85.011c.277,0,.49,0,.644-.011s.326-.017.522-.032.49-.021.882-.021a1.606,1.606,0,0,1,.458.053c.115.04.175.1.175.188a.316.316,0,0,1-.175.264,1.611,1.611,0,0,1-.544.175,1.586,1.586,0,0,0-1.023.473,2.012,2.012,0,0,0-.219,1.091v11.086a5.316,5.316,0,0,1-.283,1.739,6.943,6.943,0,0,1-.688,1.45,10.646,10.646,0,0,1-.75,1.059,4.025,4.025,0,0,1-.959.853A2.1,2.1,0,0,1,343.024,479.07Z" transform="translate(-140.214 -459.406)"/><path class="b" d="M348.428,475.122a1.125,1.125,0,0,1-.458-.077c-.117-.051-.173-.121-.173-.207a.337.337,0,0,1,.185-.277,2.18,2.18,0,0,1,.533-.228,3.535,3.535,0,0,0,1.045-.531,2.737,2.737,0,0,0,.827-1.166q.613-1.4,1.123-2.639t.968-2.419q.458-1.187.948-2.475t1.034-2.8c.073-.205.138-.409.2-.616a3.007,3.007,0,0,0,.109-.659c.13-.045.262-.089.392-.132a1.61,1.61,0,0,0,.392-.2.705.705,0,0,0,.273-.394,1.247,1.247,0,0,1,.141-.354.078.078,0,0,1,.055-.021c.021,0,.04.015.055.043a1.109,1.109,0,0,1,.075.22c.023.089.047.175.077.264q.523,1.673,1.087,3.41c.379,1.16.746,2.276,1.1,3.355s.682,2.046.979,2.9.533,1.55.706,2.081a4.639,4.639,0,0,0,.654,1.319,2.084,2.084,0,0,0,.731.616,3.655,3.655,0,0,0,.816.264,1.152,1.152,0,0,1,.544.209.393.393,0,0,1,.175.3c0,.089-.058.147-.175.179a2,2,0,0,1-.458.041c-.2,0-.478-.009-.827-.032s-.72-.045-1.111-.068-.753-.032-1.087-.032h-.85c-.29,0-.559,0-.806.011s-.458.011-.631.011a1.274,1.274,0,0,1-.458-.068c-.117-.043-.175-.107-.175-.2,0-.1.073-.192.219-.264a1.593,1.593,0,0,1,.5-.153,2.1,2.1,0,0,0,1.025-.375.8.8,0,0,0,.3-.616,4.733,4.733,0,0,0-.141-.959q-.141-.624-.337-1.343c-.132-.473-.254-.9-.371-1.264-.03-.119-.083-.187-.164-.207a1.856,1.856,0,0,0-.424-.036h-4.116a.312.312,0,0,0-.185.079.737.737,0,0,0-.186.32c-.042.147-.115.377-.217.691s-.2.648-.305,1-.188.667-.262.948a3.02,3.02,0,0,0-.107.527,1.015,1.015,0,0,0,.369.8,2.157,2.157,0,0,0,.893.452c.478.132.718.277.718.439,0,.089-.056.153-.173.188a1.6,1.6,0,0,1-.458.053c-.188,0-.463-.008-.827-.021s-.748-.023-1.155-.023c-.478,0-.944.023-1.392.064A11.794,11.794,0,0,1,348.428,475.122Zm5.1-6.312H356.9c.2,0,.305-.038.305-.109a.508.508,0,0,0-.011-.1,1,1,0,0,0-.032-.122l-1.7-5.367c-.087-.264-.151-.4-.2-.4q-.042,0-.175.373l-1.98,5.389a.739.739,0,0,0-.045.175.125.125,0,0,0,.121.132A1.6,1.6,0,0,0,353.524,468.809Z" transform="translate(-134.012 -459.747)"/><path class="b" d="M363.232,474.7c-.109-.051-.164-.115-.164-.186a.275.275,0,0,1,.207-.273c.137-.055.23-.087.271-.1a3.316,3.316,0,0,0,1.307-.516,1.246,1.246,0,0,0,.456-1.07V462.352a2.072,2.072,0,0,0-.107-.78.713.713,0,0,0-.392-.373,3.714,3.714,0,0,0-.827-.211c-.478-.089-.72-.235-.72-.439,0-.089.058-.149.175-.188a1.587,1.587,0,0,1,.458-.053c.392,0,.706.008.948.021s.465.025.686.032.486.011.8.011c.364,0,.676,0,.936-.011s.529-.017.806-.032.61-.021,1-.021a1.583,1.583,0,0,1,.456.053c.117.04.175.1.175.188a.312.312,0,0,1-.175.264,1.6,1.6,0,0,1-.543.175,8.8,8.8,0,0,0-1.373.364.817.817,0,0,0-.565.848v10.359a1.432,1.432,0,0,0,.305,1.012,1.941,1.941,0,0,0,1.371.332h2.7a2.676,2.676,0,0,0,1.036-.188,2.337,2.337,0,0,0,.663-.384,3.731,3.731,0,0,0,.642-.671,6.65,6.65,0,0,0,.49-.889,2.672,2.672,0,0,1,.185-.4c.094-.179.192-.264.294-.264a.2.2,0,0,1,.2.132.554.554,0,0,1,.066.264.225.225,0,0,1-.009.053.185.185,0,0,0-.011.057c-.1.382-.192.723-.273,1.034s-.143.6-.2.88-.09.569-.119.88a.906.906,0,0,1-.077.264.227.227,0,0,1-.228.109c-.727,0-1.422-.006-2.091-.021s-1.311-.028-1.927-.036-1.209-.017-1.776-.032-1.123-.021-1.677-.021q-.542,0-1.23.021c-.458.015-1.027.047-1.71.089A1.035,1.035,0,0,1,363.232,474.7Z" transform="translate(-120.517 -459.406)"/><path class="b" d="M372.672,474.781a1.469,1.469,0,0,1-.458-.057c-.115-.036-.175-.1-.175-.185,0-.175.241-.307.72-.4a2.823,2.823,0,0,0,1.264-.507,1.356,1.356,0,0,0,.435-1.121v-9.942a1.566,1.566,0,0,0-.316-1.1,2.121,2.121,0,0,0-1.143-.484q-.718-.133-.718-.439c0-.089.057-.149.175-.188a1.583,1.583,0,0,1,.456-.053c.392,0,.716.008.968.021s.5.025.731.032.514.011.85.011c.318,0,.58,0,.784-.011s.42-.017.654-.032.542-.021.936-.021a1.583,1.583,0,0,1,.456.053c.117.04.175.1.175.188a.312.312,0,0,1-.175.264,1.584,1.584,0,0,1-.542.175,2.465,2.465,0,0,0-1.177.484,1.423,1.423,0,0,0-.369,1.1v9.942a1.328,1.328,0,0,0,.456,1.121,2.979,2.979,0,0,0,1.264.507,2.155,2.155,0,0,1,.544.153.27.27,0,0,1,.175.243c0,.089-.058.149-.175.185a1.461,1.461,0,0,1-.458.057c-.392,0-.714-.009-.968-.032s-.5-.041-.729-.057-.516-.021-.85-.021c-.364,0-.678.008-.948.021s-.544.032-.829.057S373.064,474.781,372.672,474.781Z" transform="translate(-112.589 -459.406)"/><path class="b" d="M386.457,475.106a8.332,8.332,0,0,1-2.939-.531,7.916,7.916,0,0,1-2.528-1.507,7.035,7.035,0,0,1-2.4-5.4,6.615,6.615,0,0,1,.674-2.967,7.533,7.533,0,0,1,1.854-2.377,8.8,8.8,0,0,1,2.69-1.575,9.2,9.2,0,0,1,3.189-.558,12.859,12.859,0,0,1,1.437.066,10.476,10.476,0,0,1,1.143.186c.369.081.8.188,1.3.32a.864.864,0,0,1,.467.264.837.837,0,0,1,.164.484c.03.335.064.7.109,1.087s.072.868.087,1.443a.249.249,0,0,1-.141.252.452.452,0,0,1-.349.053.349.349,0,0,1-.25-.284,8.365,8.365,0,0,0-.5-1.443,2.5,2.5,0,0,0-.85-1,3.921,3.921,0,0,0-1.317-.559,7.1,7.1,0,0,0-1.665-.188,5.31,5.31,0,0,0-2.341.52,5.6,5.6,0,0,0-1.852,1.407,6.74,6.74,0,0,0-1.208,2.012,6.355,6.355,0,0,0-.437,2.33,8.449,8.449,0,0,0,.426,2.639,7.913,7.913,0,0,0,1.219,2.345,6.257,6.257,0,0,0,1.895,1.671,4.834,4.834,0,0,0,2.451.627,4.369,4.369,0,0,0,2.59-.727,5.951,5.951,0,0,0,1.742-2.023.483.483,0,0,1,.446-.286c.2,0,.294.119.294.354a2.724,2.724,0,0,1-.089.558,7.851,7.851,0,0,1-.228.818q-.141.427-.271.757a1.424,1.424,0,0,1-.25.4,1.5,1.5,0,0,1-.446.2,7.931,7.931,0,0,1-1.927.48A15.965,15.965,0,0,1,386.457,475.106Z" transform="translate(-106.796 -459.509)"/><path class="b" d="M389.191,475.122a1.125,1.125,0,0,1-.458-.077c-.115-.051-.173-.121-.173-.207a.341.341,0,0,1,.185-.277,2.18,2.18,0,0,1,.533-.228,3.534,3.534,0,0,0,1.045-.531,2.721,2.721,0,0,0,.827-1.166q.613-1.4,1.123-2.639t.968-2.419q.458-1.187.948-2.475t1.036-2.8c.072-.205.138-.409.2-.616a3.125,3.125,0,0,0,.107-.659c.13-.045.262-.089.392-.132a1.611,1.611,0,0,0,.392-.2.7.7,0,0,0,.273-.394,1.3,1.3,0,0,1,.141-.354.078.078,0,0,1,.055-.021c.021,0,.04.015.055.043a1,1,0,0,1,.075.22c.023.089.049.175.077.264q.523,1.673,1.089,3.41c.377,1.16.744,2.276,1.1,3.355s.682,2.046.979,2.9.535,1.55.706,2.081a4.639,4.639,0,0,0,.654,1.319,2.084,2.084,0,0,0,.731.616,3.655,3.655,0,0,0,.816.264,1.144,1.144,0,0,1,.544.209.393.393,0,0,1,.175.3c0,.089-.058.147-.175.179a1.991,1.991,0,0,1-.458.041c-.2,0-.478-.009-.825-.032s-.72-.045-1.111-.068-.755-.032-1.089-.032h-.85c-.29,0-.559,0-.8.011s-.458.011-.633.011a1.282,1.282,0,0,1-.458-.068c-.117-.043-.175-.107-.175-.2,0-.1.073-.192.219-.264a1.593,1.593,0,0,1,.5-.153,2.1,2.1,0,0,0,1.025-.375.8.8,0,0,0,.305-.616,4.77,4.77,0,0,0-.143-.959q-.141-.624-.337-1.343c-.132-.473-.254-.9-.369-1.264-.032-.119-.085-.187-.164-.207a1.881,1.881,0,0,0-.424-.036H393.7a.312.312,0,0,0-.185.079.719.719,0,0,0-.185.32c-.043.147-.117.377-.219.691s-.2.648-.3,1-.19.667-.262.948a2.907,2.907,0,0,0-.109.527,1.011,1.011,0,0,0,.371.8,2.138,2.138,0,0,0,.891.452c.48.132.718.277.718.439,0,.089-.057.153-.171.188a1.614,1.614,0,0,1-.458.053c-.19,0-.465-.008-.829-.021s-.748-.023-1.155-.023c-.478,0-.944.023-1.392.064A11.768,11.768,0,0,1,389.191,475.122Zm5.1-6.312h3.376c.2,0,.305-.038.305-.109a.5.5,0,0,0-.011-.1.985.985,0,0,0-.032-.122l-1.7-5.367c-.087-.264-.151-.4-.2-.4q-.042,0-.175.373l-1.98,5.389a.736.736,0,0,0-.045.175.125.125,0,0,0,.122.132A1.572,1.572,0,0,0,394.287,468.809Z" transform="translate(-97.989 -459.747)"/></g></g></svg>