<svg xmlns="http://www.w3.org/2000/svg" width="256.691" height="153.332" viewBox="0 0 256.691 153.332"><defs><style>.a{fill:#ffcb84;}.b{fill:#fff;}</style></defs><g transform="translate(-198.054 -208.138)"><path class="a" d="M306.743,208.138c-29.83,0-40.268,18-40.268,40.128,0,11.047,2.6,21.062,8.917,28.327.6.691,1.237,1.361,1.91,2,6.388,6.1,15.922,9.8,29.44,9.8s23.051-3.7,29.439-9.8c.389-.371.766-.751,1.126-1.139,6.883-7.322,9.7-17.7,9.7-29.189C347.006,226.139,336.573,208.138,306.743,208.138Zm0,1.4c19.734,0,29.459,11.707,32.3,27.743a.255.255,0,0,1-.278.3,1.266,1.266,0,0,1-.389-.1.252.252,0,0,1-.112-.122l-1.653-3.787a.247.247,0,0,0-.153-.14,1.412,1.412,0,0,1-.467-.2c-.564-.439-.4-.879-.554-1.246a.231.231,0,0,0-.115-.117c-.46-.228-.7-.108-1.25-.154a.271.271,0,0,1-.133-.05c-.314-.248-.268-.467-.439-.8a.26.26,0,0,0-.21-.14,5.924,5.924,0,0,0-.738.066,1.3,1.3,0,0,1-.413-.1.246.246,0,0,0-.309.148c-.059.148-.124.278-.371.255-.22-.021-.288-.166-.368-.327a.249.249,0,0,0-.25-.135l-.584.059a.252.252,0,0,1-.277-.238c-.026-.434.077-.364.223-.587a.248.248,0,0,0-.064-.332c-.216-.161-.454-.281-.528-.615.013-.021.04-.071.05-.054l.42-.27.03-.015a1.652,1.652,0,0,0,.42-.229.254.254,0,0,0,.084-.248c-.214-1.065-1.2-.554-1.872-.955a1.95,1.95,0,0,1-.74-.761c-.693-1.119-2.9.421-2.966-1.144-.014-.327.309-.548.161-.789-.4-.4-1.48-.041-1.823.122-.391.179-1.147.757-1.614.534-.291-.182-.086-.01-.255-.376-.557-1.179-1.412-.232-2.19.013a3.929,3.929,0,0,1-1.19.08.255.255,0,0,0-.2.117c-.582.955-.268,1.209-.508,1.708a.245.245,0,0,1-.234.145c-.646-.037-1.666-.839-.859-1.6a.252.252,0,0,0-.112-.433l-.161-.033c-.868-.178-.62-.722-.787-1.361-.317-1.226-1.3-.62-1.923-.9a.232.232,0,0,1-.117-.127c-.1-.266,0-.425-.248-.662s-.4-.134-.671-.345a.917.917,0,0,1-.327-.713.252.252,0,0,0-.251-.234h-.707a.96.96,0,0,1-.581.005.285.285,0,0,0-.048-.005H309.8a.248.248,0,0,0-.245.2c-.112.564.075.8-1.142.857-.888.041-.994.4-1.274,1.083-.439-.084-.416-.184-.359-.411a.252.252,0,0,0-.243-.312c-.582-.005-.408.028-.807.358a.231.231,0,0,1-.079.045,1.823,1.823,0,0,1-1.474-.4c-.621-.511-.605-.077-1.3-.013a.259.259,0,0,1-.234-.1l-.233-.327c-.184-.207-.013-.059-.2-.182-.5.163-.309.257-.518.536a.263.263,0,0,1-.184.1c-.787.045-.869-.248-1.412-.261a.251.251,0,0,0-.246.179c-.086.291-.122.454-.541.353-.4-.1-.529-.337-.812-.278a.239.239,0,0,1-.269-.145c-.061-.138-.127-.291-.193-.42a1.065,1.065,0,0,0-.348-.452.246.246,0,0,0-.348.08c-.286.48-.13.615-.353,1.231-.252.7-.556.774-.881.766a.247.247,0,0,0-.254.233,1.581,1.581,0,0,1-.206.883.258.258,0,0,1-.363.062c-.355-.274.018-.586-.9-.657-.685-.054-.557.3-1.528.312a1.514,1.514,0,0,0-.83.135c-1.1.519-.143.877-1.644,1a.252.252,0,0,0-.2.125c-.408.712-.234.488-1.238.608-1.111.133-.521.846-.756,1.152-.179.161-.116.135-.6.1-.733-.049-1.182-.322-1.672.358-.613.856-1.326.345-1.887.9a.257.257,0,0,0-.07.161c-.021.5.156.322.261.7.182.628-.4,1.155.354,1.5.345.158.394.088.651.264a.241.241,0,0,1,.108.184l.066.74a.238.238,0,0,1-.091.218,1.456,1.456,0,0,1-1.088.048,4.576,4.576,0,0,1-.744-.506.251.251,0,0,0-.294.01c-.145.126.044.2-.452.33-.36.1-.639-.015-.935.184-.273.573.257.529.376,1.093a.251.251,0,0,1-.266.3,12.825,12.825,0,0,0-1.293-.221,2.139,2.139,0,0,0-.81.122c-.3.12-.328.153-.442.363a.253.253,0,0,1-.232.133,5.277,5.277,0,0,1-.736-.12.248.248,0,0,0-.268.169c-.054.158-.107.328-.164.48-.145.39-.145.357-.59.429-.179.028-1.422.488-2.608.935C277.98,220.438,287.706,209.542,306.743,209.542Zm6.211,40.514c1.018-.766,2.464-1.742,2.906-1.573,1.515.574,1.767-.7,2.634.413.7.9.839.312,1.41.166a.26.26,0,0,1,.239.057c.171.158.106.184.291.362-.14.134-.045.077-.265.163-2.633.256-3.836-.081-7,.851A.249.249,0,0,1,312.954,250.056Zm-1.926-.184a.25.25,0,0,1-.4-.268,10.576,10.576,0,0,1,.664-1.661c.532-.657,1.934-.7,2.214.319a.251.251,0,0,1-.145.3A10.459,10.459,0,0,0,311.029,249.872Zm-15.115-1.264a.248.248,0,0,1-.018-.447,1.274,1.274,0,0,0,.332-.243c.529-.559.8-.73,1.039-.776a.255.255,0,0,1,.272.143,3.647,3.647,0,0,0,.72,1.038c.565.538.726.192,1.03-.115a.25.25,0,0,1,.273-.057,26.429,26.429,0,0,1,2.988,1.793,4.513,4.513,0,0,1,2.022,2.916c-.257-.2-.5-.6-.789-.868-1.558-1.518-3.9-1.89-5.882-2.557A17.407,17.407,0,0,1,295.914,248.608Zm.23,1.487a21.517,21.517,0,0,1-3.112-.29.248.248,0,0,1-.14-.385,1.635,1.635,0,0,1,.708-.577c.642-.337.875-.448,1.272-.2.247.156.927.631,1.43,1A.25.25,0,0,1,296.144,250.095Zm6.111-1.357a.251.251,0,0,1,.109-.47,4.566,4.566,0,0,1,3.2,1.226,7.751,7.751,0,0,1,.9,1.515.25.25,0,0,1-.411.276A13.842,13.842,0,0,0,302.255,248.738Zm5.368,14.746c-.2,1.1-4.117,2.151-19.57,4.9a25.426,25.426,0,0,0-7.026,2.192,2.638,2.638,0,0,1-3.6-1.274,51.721,51.721,0,0,1-3.894-20.5.252.252,0,0,1,.189-.246.626.626,0,0,1,.727.179c.088.117.2.332.317.5a.232.232,0,0,0,.115.084l1.661.624c.018.032.036.071.059.109-.028.605.61.194.932.751.242.417.091.758.192,1.1a.257.257,0,0,0,.275.189c.145-.018.187-.1.3-.255.664-.908,1.168.109,1.667-.274a.247.247,0,0,0,.067-.079c.238-.454-.13-.787.641-.984.542-.14.986.067,1.425-.35.358-.342.3-.868.677-1.008.538-.2.582.163.654.494a.25.25,0,0,0,.46.072c.133-.218.25-.48.584-.552.521-.112.664.376,1.344.21a.256.256,0,0,0,.191-.194c.08-.38-.068-.7.537-.658.693.05.34.247,1.1.107a.255.255,0,0,1,.273.135l.158.322c.69.117.438-.294.846-.74a1.424,1.424,0,0,1,2.575.842.254.254,0,0,1-.391.21l-.018-.013a.25.25,0,0,0-.33.368c.044.053.085.1.118.133.4.4.375-.023.649.61a1.244,1.244,0,0,0,.413.62.243.243,0,0,0,.3-.008.86.86,0,0,0,.249-.506.251.251,0,0,1,.273-.193c.579.066,1.316.18,1.928.27a33.511,33.511,0,0,1,6.339,1.085,4.991,4.991,0,0,1,3.373,4.041c.021.224-.094,2.533-.14,2.712-.955,3.708-5.3,2.942-8.984,3.679a4.681,4.681,0,0,0-1.262.34.251.251,0,0,0,.1.475C297.017,263.084,307.844,262.262,307.623,263.485Zm.895-12.292-.251-.532c-.485-1.111-2.087-3.266-2.421-4.068a.245.245,0,0,1,.049-.259,1.554,1.554,0,0,1,2.155.051,6.169,6.169,0,0,1,.833.766c.409.426.256.568.744.578a.251.251,0,0,1,.245.288c-.22,1.465-1.139,1.792-1.126,3.424A.818.818,0,0,1,308.518,251.193Zm26.208,20.789a6.194,6.194,0,0,1-6.7,3.077c-12.158-2.573-23.249-3.463-16.392-7.191,1.895-1.03,21.643-6.05,9.638-6.05-6.119,0-8.312-2.606-9.376-3.307a.25.25,0,0,0-.367.312,3.976,3.976,0,0,1,.247.566c-.179-.1-.054,0-.23-.158a1.612,1.612,0,0,1-.161-.184c-.935-1.236-.766-2.28-.541-3.606a.251.251,0,0,0-.378-.257,1.6,1.6,0,0,1-.5.252c1.357-1.228,2.567-3.3,3.847-3.93,2.079-1.014,5.484-.593,7.943-1.056.853-.161,1.017-.9,1.934-1.621.424-.33.669.107,1,.424.59.572,1.483-.153,2.609.935.3.294.506.838.976.738.55-.12.483-.779.911-.96,1.088-.507.968,1.63,1.214,2.113.153.309.068.207.291.33.424-.337.3-1.806.794-2.6a2.726,2.726,0,0,1,2.181-1.164l.176-.117c.018-.01.044-.021.059-.031s.153-.051.18-.059a4.465,4.465,0,0,1,.516-.059c1.326-.175,1.3.55,1.905.44a.23.23,0,0,0,.117-.062l1.684-1.545a1.076,1.076,0,0,1,.21.044c.642.216.27,1.672.964,1.072.371-.319.285-.721.47-1.106.005.348.008.694.008,1.044C339.951,257.2,338.346,265.428,334.726,271.982Z" transform="translate(19.66 0)"/><g transform="translate(198.054 298.222)"><path class="a" d="M221.124,320.2a11.985,11.985,0,0,0,8.5-3.459,21.886,21.886,0,0,0,5.586-9.9l.851.061q-.365,1.823-1.093,7.1c-.487,3.521-.789,6.314-.972,8.378H198.054V321.9L222.825,283.6l-7.468.061a32.148,32.148,0,0,0-5.95.485,11.157,11.157,0,0,0-3.946,1.457,9.536,9.536,0,0,0-2.671,2.915A25.328,25.328,0,0,0,200.6,294.1l-.729-.181c.183-1.518.364-3.278.485-5.221s.243-4.431.3-7.467a36.465,36.465,0,0,0,4.857.3c2.671.062,6.5.122,11.414.122h17.728v.364l-23.92,37.823c1.4.121,2.913.182,4.492.242s3.583.061,5.95.061Z" transform="translate(-198.054 -277.22)"/><path class="a" d="M242.133,322.13v.911c-.789-.062-1.761-.122-2.975-.122h-7.043c-1.214,0-2.186,0-2.975.061v-.91l.364-.061a1.912,1.912,0,0,0,1.457-.911,18.908,18.908,0,0,0,.243-4.37V286.555a4.881,4.881,0,0,0-.183-1.519,4.635,4.635,0,0,0-.546-1.093L228.9,281.7v-.3q2.184-.456,5.645-1.457c2.308-.668,4.189-1.276,5.586-1.822l.3.121c-.061.851-.121,2.248-.182,4.251s-.061,4.068-.061,6.192v28.23a19.033,19.033,0,0,0,.242,4.372,1.914,1.914,0,0,0,1.457.91Z" transform="translate(-189.191 -278.115)"/><path class="a" d="M246.462,319.814a6.225,6.225,0,0,1-4.614-1.822,6.407,6.407,0,0,1-1.82-4.735,4.343,4.343,0,0,1,.91-2.854,12.324,12.324,0,0,1,4.249-2.549l8.136-3.462v-4.918a3.875,3.875,0,0,0-1.336-3.1,5.379,5.379,0,0,0-3.643-1.214,2.516,2.516,0,0,0-1.882.606,2.736,2.736,0,0,0-.606,2,12.3,12.3,0,0,0,.182,2,16.765,16.765,0,0,0,.425,2,23.939,23.939,0,0,1-2.792.608,18.888,18.888,0,0,1-2.611.364.333.333,0,0,1-.3-.182,1.133,1.133,0,0,1-.122-.487,7.292,7.292,0,0,1,1.276-3.7,15.42,15.42,0,0,1,3.4-3.826,14.36,14.36,0,0,1,4.129-2.611,10.85,10.85,0,0,1,4.128-.91,11.283,11.283,0,0,1,6.254,1.639,5.112,5.112,0,0,1,2.55,4.493v2.792c0,1.093-.061,2.794-.122,5.1-.06,2.125-.06,3.642-.06,4.553v2.367a3.124,3.124,0,0,0,.546,2.065,2.221,2.221,0,0,0,1.761.606,2.847,2.847,0,0,0,1.032-.181,5.76,5.76,0,0,0,1.032-.546l.182.121a6.619,6.619,0,0,1-2.186,4.068,5.992,5.992,0,0,1-4.249,1.82,7.686,7.686,0,0,1-4.189-1.093,6.853,6.853,0,0,1-2.611-3.4,14.117,14.117,0,0,1-3.521,3.462,6.111,6.111,0,0,1-3.157.91Zm6.739-14.449-2.549,1.943a5.343,5.343,0,0,0-1.518,1.639,4.074,4.074,0,0,0-.425,2,4.126,4.126,0,0,0,.91,2.853,3.247,3.247,0,0,0,2.49,1.032h.546a1.776,1.776,0,0,0,.546-.122Z" transform="translate(-185.993 -274.402)"/><path class="a" d="M271.187,321.365a9.375,9.375,0,0,1-5.828-1.761,5.388,5.388,0,0,1-2.246-4.493V303.393c0-2.064,0-3.642.06-4.674l-2.49-3.1v-.243a56.516,56.516,0,0,0,5.95-4.128,69.25,69.25,0,0,0,5.342-4.553l.364.183c-.061.667-.121,1.639-.182,2.974s-.122,2.369-.122,3.158l9.229-.3a4.777,4.777,0,0,1-.608,2,5.8,5.8,0,0,1-1.153,1.761l-7.407-.121v16.209a2.454,2.454,0,0,0,1.093,2.186,6.829,6.829,0,0,0,3.643.729,12,12,0,0,0,2.671-.3,8.339,8.339,0,0,0,2.307-.911l.243.3a14.539,14.539,0,0,1-4.676,4.919,10.893,10.893,0,0,1-6.009,1.82Z" transform="translate(-180.058 -275.649)"/><path class="a" d="M307.3,318.748v.91c-.789-.06-1.761-.121-2.975-.121h-7.042c-1.214,0-2.186,0-2.975.061v-.91l.364-.062a1.913,1.913,0,0,0,1.457-.91,19.031,19.031,0,0,0,.242-4.372v-8.135c0-2.975-.425-5.221-1.274-6.677a4.151,4.151,0,0,0-3.825-2.186,9.134,9.134,0,0,0-1.336.121,6.537,6.537,0,0,0-1.153.3v16.635a18.9,18.9,0,0,0,.243,4.371,1.918,1.918,0,0,0,1.457.911l.364.06v.91c-.789-.06-1.761-.121-2.975-.121h-7.043c-1.214,0-2.185,0-2.975.061v-.91l.364-.062a1.911,1.911,0,0,0,1.457-.91,18.915,18.915,0,0,0,.243-4.372V300.171a4.707,4.707,0,0,0-.183-1.457,6.4,6.4,0,0,0-.546-1.153l-1.276-2.186v-.3c1.519-.424,3.4-1.092,5.586-1.941s3.947-1.58,5.221-2.186l.3.121a8.786,8.786,0,0,0-.183,1.457q-.091,1.184-.181,3.278a30.191,30.191,0,0,1,5.463-3.642,9.5,9.5,0,0,1,4.007-1.093,6.274,6.274,0,0,1,4.918,2.246,8.241,8.241,0,0,1,2,5.646v14.266a18.915,18.915,0,0,0,.243,4.372,1.912,1.912,0,0,0,1.457.91Z" transform="translate(-175.126 -274.429)"/><path class="a" d="M314.895,321.777v.91c-.789-.061-1.761-.121-2.975-.121h-7.043c-1.214,0-2.185,0-2.974.06v-.911l.364-.059a1.915,1.915,0,0,0,1.456-.911,18.9,18.9,0,0,0,.243-4.37V303.2a4.707,4.707,0,0,0-.183-1.457,6.4,6.4,0,0,0-.546-1.153l-1.274-2.186v-.3c1.518-.425,3.4-1.093,5.586-1.943s3.946-1.578,5.22-2.186l.3.122c-.06.789-.121,2-.181,3.581s-.062,3.46-.062,5.586v13.052a19,19,0,0,0,.243,4.372,1.915,1.915,0,0,0,1.457.91Zm-2.732-40.13a4.837,4.837,0,1,1-3.46-1.457A4.768,4.768,0,0,1,312.163,281.647Z" transform="translate(-168.214 -277.519)"/><path class="a" d="M334.488,322.234h-5.161c-1.7,0-4.432,0-8.135.061v-1.031a10.64,10.64,0,0,0,3.4-.547,2.864,2.864,0,0,0,1.578-1.76,14.854,14.854,0,0,0,.485-3.947c.06-1.943.121-6.011.121-12.142v-1.822c0-6.132-.061-10.2-.121-12.142a14.855,14.855,0,0,0-.485-3.947,2.78,2.78,0,0,0-1.518-1.76,10.21,10.21,0,0,0-3.339-.547v-1.031c2,.061,3.825.061,5.524.061h9.714c1.761,0,3.583-.061,5.465-.121v1.032a10.14,10.14,0,0,0-3.339.546,2.773,2.773,0,0,0-1.518,1.761,14.845,14.845,0,0,0-.485,3.946c-.062,1.943-.122,5.95-.122,12.082v14.024a4.138,4.138,0,0,0,1.882,3.825c1.276.789,3.4,1.153,6.375,1.153a10.625,10.625,0,0,0,7.832-3.157c2.124-2.125,3.946-5.4,5.4-9.9l.729.183c-.364,2.125-.668,4.432-.972,6.86s-.606,5.161-.91,8.257c-1.518,0-4.978,0-10.382-.062s-9.288-.059-11.656-.059Z" transform="translate(-162.672 -277.126)"/><path class="a" d="M380.044,317.344c-.121.062-1.639.426-4.614,1.155s-5.039,1.274-6.253,1.7l-.243-.121q.091-.821.181-1.822c.062-.668.122-1.457.183-2.307a21.525,21.525,0,0,1-4.8,3.1,10.9,10.9,0,0,1-4.493,1.153,5.908,5.908,0,0,1-4.8-2.186,8.754,8.754,0,0,1-1.822-5.767v-15.3a2.519,2.519,0,0,0-.425-1.64,2.816,2.816,0,0,0-1.457-.85l-.606-.182v-.73a43.209,43.209,0,0,0,5.766-.789c2.065-.425,3.947-.91,5.708-1.456l.242.121c-.061,1.4-.121,3.036-.182,4.857s-.061,4.006-.061,6.556v4.676c0,3.1.364,5.16,1.093,6.253a4.207,4.207,0,0,0,3.763,1.639h1.336a2.817,2.817,0,0,0,.85-.121V296.824a2.516,2.516,0,0,0-.425-1.639,2.816,2.816,0,0,0-1.457-.85l-.606-.182v-.73a40.375,40.375,0,0,0,5.646-.789q3-.637,5.645-1.456l.243.121c-.061,1.4-.121,3.036-.182,4.857s-.062,4.006-.062,6.556v11.231a3.783,3.783,0,0,0,.364,1.944,1.628,1.628,0,0,0,1.215.667l.425.062Z" transform="translate(-154.134 -274.361)"/><path class="a" d="M403.977,321.332a11.665,11.665,0,0,1-1.58,5.828,14.455,14.455,0,0,1-4.492,4.736,18.892,18.892,0,0,1-5.586,2.609,22.992,22.992,0,0,1-6.5.911,15.943,15.943,0,0,1-8.44-2,5.991,5.991,0,0,1-3.278-5.221,4.494,4.494,0,0,1,1.822-3.46,12.243,12.243,0,0,1,4.8-2.369,6.764,6.764,0,0,1-3.157-2.185,5.311,5.311,0,0,1-1.276-3.46,5.759,5.759,0,0,1,1.215-3.1,24.134,24.134,0,0,1,4.371-4.37,10.976,10.976,0,0,1-4.25-3.521,8,8,0,0,1-1.639-4.736,8.912,8.912,0,0,1,3.4-7.1,12.362,12.362,0,0,1,8.2-2.853,12.723,12.723,0,0,1,3.4.425,13.873,13.873,0,0,1,3.1,1.274c1.58-.3,3.462-.606,5.586-.971s3.279-.546,3.46-.546a1.049,1.049,0,0,1,.789.3,1.26,1.26,0,0,1,.243.911,4.067,4.067,0,0,1-.425,1.639,6.811,6.811,0,0,1-1.093,1.7,15.061,15.061,0,0,0-2.429-.425c-1.031-.121-2.064-.182-3.1-.242a9.084,9.084,0,0,1,1.64,2.732,7.861,7.861,0,0,1,.546,2.792,8.6,8.6,0,0,1-3.4,6.983,12.877,12.877,0,0,1-8.378,2.732,12.247,12.247,0,0,1-2.611-.243,16.7,16.7,0,0,1-2.488-.729,4.214,4.214,0,0,0-.364,1.032,4.7,4.7,0,0,0-.122.91,2.093,2.093,0,0,0,2.246,2.246l11.353-.121a8.722,8.722,0,0,1,6.011,2.186,6.88,6.88,0,0,1,2.49,5.342ZM397.6,326.8a3.8,3.8,0,0,0-1.457-3.218,7.259,7.259,0,0,0-4.372-1.092l-10.927.182c-.062.3-.122.608-.183.972a7,7,0,0,0-.06,1.153,7.623,7.623,0,0,0,2.55,5.949,10.4,10.4,0,0,0,12.324.547,5.525,5.525,0,0,0,2.186-4.553Zm-13.418-25.863a15.683,15.683,0,0,0,.972,6.071q1,2.367,2.732,2.367c.972,0,1.761-.727,2.307-2.185a18.08,18.08,0,0,0,.85-6.133,15.164,15.164,0,0,0-.971-6.011c-.668-1.516-1.578-2.307-2.732-2.307-.972,0-1.7.729-2.246,2.186a17.9,17.9,0,0,0-.789,6.071Z" transform="translate(-147.467 -274.402)"/><g transform="translate(0 48.952)"><path class="b" d="M203.469,327.225c-.107,0-.341-.01-.7-.032s-.781-.041-1.251-.057-.915-.023-1.338-.023c-.211,0-.389.005-.53.016s-.3.023-.46.041-.387.023-.673.023a.923.923,0,0,1-.332-.049.165.165,0,0,1-.126-.157.163.163,0,0,1,.126-.169,3.668,3.668,0,0,1,.4-.089,1.462,1.462,0,0,0,.83-.367,1.23,1.23,0,0,0,.23-.832v-7.2a1.165,1.165,0,0,0-.23-.815,1.536,1.536,0,0,0-.83-.353,1.739,1.739,0,0,1-.4-.1.19.19,0,0,1-.126-.184.169.169,0,0,1,.126-.161.99.99,0,0,1,.332-.046c.275,0,.494,0,.658.008l.483.015c.158.005.364.008.617.008q.255,0,.641-.015c.259-.01.529-.026.808-.049s.532-.036.76-.046.393-.016.5-.016a8.52,8.52,0,0,1,2.754.39,4.881,4.881,0,0,1,1.852,1.088,4.312,4.312,0,0,1,1.053,1.617,5.623,5.623,0,0,1,.341,1.972,5.482,5.482,0,0,1-.427,2.16,5.7,5.7,0,0,1-1.188,1.782,5.535,5.535,0,0,1-1.757,1.21A5.336,5.336,0,0,1,203.469,327.225Zm-.191-.56a3.958,3.958,0,0,0,2.186-.609,4.089,4.089,0,0,0,1.479-1.677,5.478,5.478,0,0,0,.53-2.463,5.272,5.272,0,0,0-.38-2.055,4.567,4.567,0,0,0-1.013-1.519,4.5,4.5,0,0,0-1.425-.944,4.119,4.119,0,0,0-1.6-.328c-.453,0-.842.013-1.164.041a1.313,1.313,0,0,0-.736.246.846.846,0,0,0-.254.689v7.132a1.238,1.238,0,0,0,.349.959,1.779,1.779,0,0,0,.895.425A6.019,6.019,0,0,0,203.278,326.665Z" transform="translate(-198.054 -316.016)"/><path class="b" d="M215.238,327.354a5.334,5.334,0,0,1-1.994-.376,5.092,5.092,0,0,1-2.833-2.734,5.242,5.242,0,0,1-.427-2.15,6.3,6.3,0,0,1,.348-2.087,5.364,5.364,0,0,1,1.03-1.782,4.9,4.9,0,0,1,1.694-1.249,5.558,5.558,0,0,1,2.326-.463,5.367,5.367,0,0,1,2,.376,5.115,5.115,0,0,1,2.833,2.734,5.272,5.272,0,0,1,.429,2.15,6.327,6.327,0,0,1-.349,2.079,5.426,5.426,0,0,1-1.029,1.792,4.94,4.94,0,0,1-1.694,1.246A5.526,5.526,0,0,1,215.238,327.354Zm.238-.64a3.683,3.683,0,0,0,2.028-.518,3.192,3.192,0,0,0,1.21-1.456,5.478,5.478,0,0,0,.4-2.183,8.319,8.319,0,0,0-.254-2.079,5.581,5.581,0,0,0-.753-1.72,3.585,3.585,0,0,0-1.241-1.157,3.525,3.525,0,0,0-1.742-.417,3.643,3.643,0,0,0-2,.514,3.2,3.2,0,0,0-1.219,1.429,5.279,5.279,0,0,0-.411,2.168,8.573,8.573,0,0,0,.245,2.095,5.505,5.505,0,0,0,.744,1.728,3.623,3.623,0,0,0,1.244,1.175A3.445,3.445,0,0,0,215.476,326.714Z" transform="translate(-194.626 -316.034)"/><path class="b" d="M221.966,327.182a1.082,1.082,0,0,1-.333-.041c-.084-.026-.126-.07-.126-.134a.2.2,0,0,1,.126-.176,1.6,1.6,0,0,1,.4-.112,1.112,1.112,0,0,0,.649-.382,1.719,1.719,0,0,0,.332-.865c.127-.959.237-1.873.333-2.743s.171-1.652.229-2.351.086-1.269.086-1.717v-.272a1.891,1.891,0,0,0-.015-.256,2.619,2.619,0,0,0-.048-.265.5.5,0,0,0-.191-.264,1.662,1.662,0,0,0-.552-.326,4.22,4.22,0,0,0-.635-.153.519.519,0,0,1-.252-.118.271.271,0,0,1-.1-.2c0-.086.049-.135.151-.151a2.566,2.566,0,0,1,.387-.026c.106,0,.266.008.483.018s.452.026.7.046.488.039.7.049.378.015.483.015a.288.288,0,0,1,.191.066.332.332,0,0,1,.111.192c.053.191.106.393.158.605a6.056,6.056,0,0,0,.189.624l2.5,6.412a.222.222,0,0,0,.174.138.163.163,0,0,0,.189-.089l3.119-6.556c.054-.181.106-.384.158-.609s.1-.42.127-.591c.032-.139.084-.207.157-.207h.57a8.711,8.711,0,0,0,1.005-.064,7.729,7.729,0,0,1,.8-.064,1.011,1.011,0,0,1,.206.026c.084.015.127.059.127.134a.2.2,0,0,1-.088.176,1.8,1.8,0,0,1-.324.161c-.138.051-.291.112-.458.176s-.328.126-.476.192a.606.606,0,0,0-.269.215.545.545,0,0,0-.111.328q0,1.118.04,2.1t.086,1.885c.032.6.07,1.2.112,1.784s.079,1.184.109,1.789a1.09,1.09,0,0,0,.318.762,1.759,1.759,0,0,0,.87.375,1.588,1.588,0,0,1,.4.112.2.2,0,0,1,.127.176c0,.064-.043.108-.127.134a1.067,1.067,0,0,1-.332.041c-.285,0-.519-.008-.7-.023s-.362-.031-.53-.041-.375-.016-.617-.016c-.211,0-.389.005-.532.016s-.295.023-.458.041-.389.023-.673.023a1.067,1.067,0,0,1-.332-.041c-.085-.026-.127-.07-.127-.134a.208.208,0,0,1,.127-.184,1.061,1.061,0,0,1,.4-.1.855.855,0,0,0,.633-.328,1.518,1.518,0,0,0,.174-.824q0-1.149-.023-2.079c-.015-.617-.039-1.228-.071-1.831s-.064-1.259-.1-1.974c-.01-.117-.042-.174-.1-.169s-.106.062-.158.169l-3.641,7.5a.15.15,0,0,1-.143.089.128.128,0,0,1-.143-.1q-.618-1.871-1.322-3.687t-1.591-3.908a.11.11,0,0,0-.109-.08.088.088,0,0,0-.1.08q-.141,1.118-.26,2.053t-.183,1.847q-.064.911-.063,2a1.291,1.291,0,0,0,.269.792,1.2,1.2,0,0,0,.761.456,1.592,1.592,0,0,1,.394.112.193.193,0,0,1,.127.176c0,.064-.041.108-.127.134a1.058,1.058,0,0,1-.331.041q-.427,0-.641-.023c-.143-.018-.269-.031-.381-.041s-.266-.016-.467-.016-.336.005-.443.016-.227.023-.363.041A6.251,6.251,0,0,1,221.966,327.182Z" transform="translate(-191.315 -316.006)"/><path class="b" d="M248.071,327.254c-.456,0-.892,0-1.314-.008l-1.228-.015c-.4-.008-.78-.013-1.155-.018s-.736-.008-1.085-.008c-.315,0-.633,0-.949.008s-.628.01-.936.01h-1.218c-.042,0-.078-.075-.112-.225a1.054,1.054,0,0,1,.151-.344c.1-.176.225-.371.373-.583s.279-.4.4-.559q.807-1.12,1.488-2.057t1.314-1.823q.631-.886,1.29-1.838c.438-.635.91-1.334,1.416-2.1a.23.23,0,0,0,.049-.062.157.157,0,0,0,.015-.064.094.094,0,0,0-.064-.081.822.822,0,0,0-.237-.049q-.427-.015-1.052-.023t-1.259-.008h-.887a7.245,7.245,0,0,0-.727.031,2.11,2.11,0,0,0-.856.314,1.622,1.622,0,0,0-.7.869c-.044.1-.1.207-.167.33a.31.31,0,0,1-.277.184.118.118,0,0,1-.1-.057.2.2,0,0,1-.04-.12.672.672,0,0,1,.04-.215c.026-.08.049-.153.072-.218.041-.116.091-.279.149-.487s.116-.438.174-.686a4.008,4.008,0,0,0,.1-.712c.012-.12.042-.192.1-.225a.28.28,0,0,1,.143-.048.522.522,0,0,1,.212.081c.1.051.193.1.278.142a4.1,4.1,0,0,0,.561.161,3.434,3.434,0,0,0,.8.1h2.952q.467,0,.918-.008l.895-.016c.3-.005.591-.013.887-.026.053,0,.1.039.151.115s.054.131.023.176l-.966,1.294q-.825,1.12-1.488,2.031t-1.267,1.766q-.6.857-1.227,1.792t-1.368,2.087a.314.314,0,0,0-.049.192.341.341,0,0,0,.049.176.189.189,0,0,0,.126.1c.232.021.5.039.807.054s.633.027.981.027.73-.009,1.108-.027.756-.033,1.124-.054a2.294,2.294,0,0,0,1.963-1.743.688.688,0,0,1,.135-.218.292.292,0,0,1,.214-.118c.094,0,.142.07.142.207a2.9,2.9,0,0,1-.063.375c-.041.21-.094.445-.158.713s-.129.518-.2.751a4.985,4.985,0,0,1-.166.5,1.707,1.707,0,0,1-.1.184A.2.2,0,0,1,248.071,327.254Z" transform="translate(-185.98 -316.077)"/><path class="b" d="M250.04,327.289a.818.818,0,0,1-.333-.057c-.084-.036-.125-.088-.125-.149a.247.247,0,0,1,.133-.2,1.623,1.623,0,0,1,.389-.166,2.582,2.582,0,0,0,.76-.386,1.98,1.98,0,0,0,.6-.847q.446-1.021.816-1.918c.248-.6.483-1.184.7-1.759s.452-1.177.689-1.8.488-1.3.753-2.039c.053-.149.1-.3.142-.448a2.4,2.4,0,0,0,.08-.479c.094-.033.189-.064.285-.1a1.241,1.241,0,0,0,.284-.145.505.505,0,0,0,.2-.287.93.93,0,0,1,.1-.256.061.061,0,0,1,.041-.015c.015,0,.028.01.04.031a.821.821,0,0,1,.054.16c.017.066.035.127.055.192q.38,1.217.792,2.479c.274.843.541,1.654.8,2.439s.5,1.486.712,2.11.388,1.126.514,1.513a3.344,3.344,0,0,0,.475.958,1.484,1.484,0,0,0,.532.448,2.512,2.512,0,0,0,.592.192.835.835,0,0,1,.4.153.288.288,0,0,1,.127.215c0,.064-.044.106-.127.129a1.446,1.446,0,0,1-.332.031c-.148,0-.349-.008-.6-.023s-.524-.033-.808-.049-.548-.023-.79-.023h-.618c-.211,0-.407,0-.586.008s-.332.008-.46.008a.914.914,0,0,1-.332-.049c-.085-.031-.127-.077-.127-.143s.053-.139.16-.192a1.164,1.164,0,0,1,.363-.111,1.532,1.532,0,0,0,.745-.272.585.585,0,0,0,.221-.448,3.4,3.4,0,0,0-.1-.7q-.1-.454-.245-.976c-.1-.344-.185-.653-.269-.919-.022-.085-.06-.135-.12-.151a1.326,1.326,0,0,0-.308-.026h-2.992a.23.23,0,0,0-.135.057.556.556,0,0,0-.135.233c-.031.107-.084.275-.157.5s-.148.471-.221.727-.138.484-.191.689a2.173,2.173,0,0,0-.08.384.731.731,0,0,0,.27.582,1.536,1.536,0,0,0,.649.33c.348.1.521.2.521.318,0,.066-.041.112-.126.138a1.175,1.175,0,0,1-.332.039q-.207,0-.6-.016t-.839-.015c-.348,0-.686.015-1.012.046A8.781,8.781,0,0,1,250.04,327.289Zm3.7-4.588H256.2c.147,0,.221-.028.221-.081a.379.379,0,0,0-.008-.072c-.006-.026-.014-.057-.024-.088l-1.235-3.9c-.063-.192-.111-.287-.143-.287s-.063.09-.126.272l-1.441,3.919a.505.505,0,0,0-.032.126.092.092,0,0,0,.088.1A1.213,1.213,0,0,0,253.744,322.7Z" transform="translate(-183.248 -316.113)"/><path class="b" d="M268.583,327.387a3.656,3.656,0,0,1-1.227-.2,3.263,3.263,0,0,1-1.005-.569.993.993,0,0,1-.118-.143.685.685,0,0,1-.088-.176,4.264,4.264,0,0,1-.1-.83c-.015-.342-.035-.624-.055-.847a.183.183,0,0,1,.094-.169.422.422,0,0,1,.223-.057.331.331,0,0,1,.158.041.171.171,0,0,1,.1.135,3.311,3.311,0,0,0,.942,1.757,2,2,0,0,0,1.305.529,1.957,1.957,0,0,0,.981-.241,1.724,1.724,0,0,0,.673-.678,2.085,2.085,0,0,0,.246-1.031,2.287,2.287,0,0,0-.215-1.065,2.18,2.18,0,0,0-.608-.712q-.4-.3-.967-.655-.618-.4-1.218-.808a4.026,4.026,0,0,1-1-.942,2.131,2.131,0,0,1-.4-1.3,2.964,2.964,0,0,1,.364-1.47,2.631,2.631,0,0,1,1.1-1.049,3.89,3.89,0,0,1,1.844-.391,3.583,3.583,0,0,1,.99.12,5.215,5.215,0,0,1,.673.233.494.494,0,0,1,.214.157.661.661,0,0,1,.117.242c.064.225.133.479.206.766a3.281,3.281,0,0,1,.112.816c0,.118-.08.176-.237.176a.659.659,0,0,1-.278-.063.289.289,0,0,1-.166-.16,3.772,3.772,0,0,0-.776-1.3,1.5,1.5,0,0,0-1.124-.448,2.218,2.218,0,0,0-.887.175,1.493,1.493,0,0,0-.672.575,1.93,1.93,0,0,0-.261,1.072,1.373,1.373,0,0,0,.308.87,3.7,3.7,0,0,0,.816.743q.506.353,1.093.72.554.338,1.084.736a3.487,3.487,0,0,1,.872.953,2.532,2.532,0,0,1,.34,1.352,3.16,3.16,0,0,1-.429,1.656,2.85,2.85,0,0,1-1.2,1.1A4.087,4.087,0,0,1,268.583,327.387Z" transform="translate(-178.535 -316.034)"/><path class="b" d="M276.965,327.318a1.073,1.073,0,0,1-.332-.041c-.085-.026-.126-.07-.126-.134a.194.194,0,0,1,.126-.176,1.6,1.6,0,0,1,.4-.112,1.9,1.9,0,0,0,.918-.39,1.09,1.09,0,0,0,.318-.857v-6.2q0-.734-.031-1.126a1.878,1.878,0,0,0-.1-.552.26.26,0,0,0-.2-.176,2.669,2.669,0,0,0-.466-.057c-.165-.005-.384-.008-.658-.008h-.743a1.974,1.974,0,0,0-.753.153,1.047,1.047,0,0,0-.546.471,2.712,2.712,0,0,1-.158.233,1.626,1.626,0,0,1-.238.264.4.4,0,0,1-.252.112.087.087,0,0,1-.088-.066.412.412,0,0,1-.023-.144.711.711,0,0,1,.079-.319,5.221,5.221,0,0,0,.324-.823,5.678,5.678,0,0,0,.166-.855c.021-.182.06-.291.12-.322a.327.327,0,0,1,.149-.046c.044,0,.109.062.2.192a2.483,2.483,0,0,1,.2.318.662.662,0,0,0,.435.241,2.96,2.96,0,0,0,.673.081h5.572a5.144,5.144,0,0,0,.9-.066,2.656,2.656,0,0,0,.6-.175,1.319,1.319,0,0,0,.308-.207.43.43,0,0,1,.31-.112c.031,0,.057.039.079.12a1,1,0,0,1,.031.248,1.519,1.519,0,0,1-.023.223c-.015.1-.03.171-.04.223a3.47,3.47,0,0,1-.086.417,1.9,1.9,0,0,0-.057.223,2.14,2.14,0,0,0-.015.305v.192a1.01,1.01,0,0,1-.063.327c-.042.124-.1.185-.19.185s-.131-.059-.174-.175a3.809,3.809,0,0,1-.126-.483.8.8,0,0,0-.38-.536,2.133,2.133,0,0,0-1.077-.2h-1.6a1.12,1.12,0,0,0-.521.1c-.117.064-.191.225-.221.481a11.331,11.331,0,0,0-.049,1.26v6.286a1.063,1.063,0,0,0,.333.857,1.988,1.988,0,0,0,.918.39,1.6,1.6,0,0,1,.4.112.2.2,0,0,1,.125.176c0,.064-.041.108-.125.134a1.082,1.082,0,0,1-.333.041c-.284,0-.52-.008-.7-.023s-.36-.031-.53-.041-.375-.016-.618-.016c-.263,0-.493.005-.687.016s-.4.023-.6.041S277.25,327.318,276.965,327.318Z" transform="translate(-176.23 -316.141)"/><path class="b" d="M283.761,327.289a.818.818,0,0,1-.333-.057c-.084-.036-.125-.088-.125-.149a.247.247,0,0,1,.133-.2,1.623,1.623,0,0,1,.389-.166,2.582,2.582,0,0,0,.76-.386,1.99,1.99,0,0,0,.6-.847q.444-1.021.816-1.918c.249-.6.483-1.184.7-1.759s.452-1.177.689-1.8.488-1.3.752-2.039c.054-.149.1-.3.143-.448a2.311,2.311,0,0,0,.079-.479c.1-.033.191-.064.286-.1a1.241,1.241,0,0,0,.284-.145.511.511,0,0,0,.2-.287.93.93,0,0,1,.1-.256.056.056,0,0,1,.041-.015c.015,0,.028.01.04.031a.821.821,0,0,1,.054.16c.017.066.035.127.055.192q.38,1.217.792,2.479c.274.843.541,1.654.8,2.439s.5,1.486.713,2.11.387,1.126.514,1.513a3.344,3.344,0,0,0,.475.958,1.492,1.492,0,0,0,.53.448,2.541,2.541,0,0,0,.593.192.835.835,0,0,1,.4.153.286.286,0,0,1,.126.215c0,.064-.043.106-.126.129a1.451,1.451,0,0,1-.333.031c-.147,0-.348-.008-.6-.023s-.524-.033-.808-.049-.548-.023-.792-.023h-.617c-.211,0-.407,0-.586.008s-.332.008-.46.008a.926.926,0,0,1-.333-.049c-.084-.031-.126-.077-.126-.143s.053-.139.16-.192a1.165,1.165,0,0,1,.363-.111,1.532,1.532,0,0,0,.745-.272.585.585,0,0,0,.221-.448,3.5,3.5,0,0,0-.1-.7c-.068-.3-.151-.628-.245-.976s-.185-.653-.269-.919c-.022-.085-.061-.135-.12-.151a1.326,1.326,0,0,0-.308-.026h-2.993a.23.23,0,0,0-.134.057.542.542,0,0,0-.135.233c-.031.107-.084.275-.158.5s-.147.471-.221.727-.137.484-.189.689a2.05,2.05,0,0,0-.08.384.734.734,0,0,0,.269.582,1.551,1.551,0,0,0,.649.33c.349.1.523.2.523.318,0,.066-.041.112-.126.138a1.175,1.175,0,0,1-.332.039q-.207,0-.6-.016t-.839-.015c-.348,0-.686.015-1.012.046A8.781,8.781,0,0,1,283.761,327.289Zm3.7-4.588h2.454c.148,0,.221-.028.221-.081a.384.384,0,0,0-.008-.072.745.745,0,0,0-.023-.088l-1.235-3.9c-.064-.192-.111-.287-.143-.287s-.063.09-.127.272l-1.439,3.919a.5.5,0,0,0-.032.126.092.092,0,0,0,.088.1A1.205,1.205,0,0,0,287.465,322.7Z" transform="translate(-173.559 -316.113)"/><path class="b" d="M304.3,327.443a4.728,4.728,0,0,1-.839-.073,2.277,2.277,0,0,1-.727-.264,2.321,2.321,0,0,1-.618-.528c-.254-.319-.5-.627-.727-.919s-.478-.632-.738-1.016-.572-.873-.941-1.471a1.631,1.631,0,0,0-.681-.623,2.953,2.953,0,0,0-.689-.25,5.079,5.079,0,0,0-.562-.088.17.17,0,0,0-.182.08.48.48,0,0,0-.055.241v2.815a1.622,1.622,0,0,0,.237.886,1.174,1.174,0,0,0,.824.489,1.588,1.588,0,0,1,.4.112.2.2,0,0,1,.127.176c0,.064-.042.108-.127.134a1.073,1.073,0,0,1-.332.041,5.256,5.256,0,0,1-.657-.031c-.153-.023-.291-.041-.412-.057a4.01,4.01,0,0,0-.484-.023c-.263,0-.5.008-.7.023s-.412.033-.615.057-.453.031-.738.031a1.073,1.073,0,0,1-.332-.041c-.085-.026-.127-.07-.127-.134,0-.127.175-.223.523-.288a1.755,1.755,0,0,0,.878-.367,1.108,1.108,0,0,0,.278-.847v-6.814a5.619,5.619,0,0,0-.055-.919.622.622,0,0,0-.254-.44,1.59,1.59,0,0,0-.656-.176.876.876,0,0,1-.4-.118.248.248,0,0,1-.127-.2c0-.066.042-.109.127-.138a1.163,1.163,0,0,1,.332-.039h.641c.143,0,.277,0,.4.008s.295.008.506.008.38-.008.538-.023.335-.031.53-.041.445-.015.752-.015a4.5,4.5,0,0,1,2.652.655,2.269,2.269,0,0,1,.91,1.968,2.521,2.521,0,0,1-.284,1.237,2.972,2.972,0,0,1-.712.873,4.756,4.756,0,0,1-.872.575c-.042.01-.06.036-.055.072a.4.4,0,0,0,.055.135q.49.753.942,1.424a14.957,14.957,0,0,0,.99,1.311,14.58,14.58,0,0,0,1.281,1.328,1.765,1.765,0,0,0,.839.448,5.555,5.555,0,0,0,.982.08c.157,0,.238.058.238.176a.384.384,0,0,1-.238.358,1.661,1.661,0,0,1-.539.16A3.92,3.92,0,0,1,304.3,327.443Zm-5.92-5.6a2.321,2.321,0,0,0,1.259-.333,2.357,2.357,0,0,0,.823-.881,2.4,2.4,0,0,0,.292-1.15,4.069,4.069,0,0,0-.166-1.2,1.568,1.568,0,0,0-.664-.87,2.762,2.762,0,0,0-1.5-.328.664.664,0,0,0-.664.328,3.229,3.229,0,0,0-.189,1.161c-.01.266-.019.623-.024,1.076s-.008,1-.008,1.64c0,.266.073.427.221.481A1.953,1.953,0,0,0,298.375,321.843Z" transform="translate(-170.315 -316.009)"/><path class="b" d="M306.217,327.171a1.067,1.067,0,0,1-.332-.041c-.085-.026-.127-.07-.127-.134,0-.127.175-.223.523-.288a2.053,2.053,0,0,0,.918-.367.989.989,0,0,0,.317-.816V318.3a1.139,1.139,0,0,0-.229-.8,1.545,1.545,0,0,0-.832-.353c-.348-.064-.521-.171-.521-.318,0-.066.041-.109.126-.138a1.169,1.169,0,0,1,.332-.039c.284,0,.52.005.7.015s.363.018.53.023.375.008.618.008.422,0,.57-.008.305-.013.475-.023.4-.015.681-.015a1.159,1.159,0,0,1,.331.039c.085.028.127.072.127.138a.231.231,0,0,1-.127.192,1.153,1.153,0,0,1-.394.126,1.8,1.8,0,0,0-.856.353,1.03,1.03,0,0,0-.268.8v7.228a.966.966,0,0,0,.331.816,2.174,2.174,0,0,0,.918.367,1.584,1.584,0,0,1,.4.112.2.2,0,0,1,.127.176c0,.064-.044.108-.127.134a1.073,1.073,0,0,1-.332.041c-.286,0-.52-.008-.705-.023s-.36-.031-.529-.041-.376-.016-.618-.016q-.4,0-.689.016c-.2.01-.4.023-.6.041S306.5,327.171,306.217,327.171Z" transform="translate(-167.107 -315.995)"/><path class="b" d="M312.947,330.291q-1.632,0-1.632-.785a.745.745,0,0,1,.223-.51.6.6,0,0,1,.4-.241.927.927,0,0,1,.4.088.913.913,0,0,1,.348.313,1.929,1.929,0,0,0,.372.368.672.672,0,0,0,.372.112c.37,0,.636-.228.8-.681a5.607,5.607,0,0,0,.245-1.847v-8.826a1.082,1.082,0,0,0-.237-.792,1.592,1.592,0,0,0-.807-.345c-.348-.064-.523-.171-.523-.318,0-.066.042-.109.127-.138a1.169,1.169,0,0,1,.332-.039c.286,0,.52.005.705.015s.36.018.529.023.375.008.618.008c.2,0,.355,0,.467-.008s.237-.013.38-.023.355-.015.641-.015a1.169,1.169,0,0,1,.332.039c.084.028.127.072.127.138a.233.233,0,0,1-.127.192,1.161,1.161,0,0,1-.4.126,1.153,1.153,0,0,0-.743.345,1.456,1.456,0,0,0-.158.792v8.06a3.838,3.838,0,0,1-.206,1.263,5.028,5.028,0,0,1-.5,1.054,7.727,7.727,0,0,1-.545.77,2.911,2.911,0,0,1-.7.621A1.533,1.533,0,0,1,312.947,330.291Z" transform="translate(-165.51 -315.995)"/><path class="b" d="M319.239,327.289a.818.818,0,0,1-.333-.057c-.084-.036-.125-.088-.125-.149a.247.247,0,0,1,.133-.2,1.622,1.622,0,0,1,.389-.166,2.582,2.582,0,0,0,.76-.386,1.99,1.99,0,0,0,.6-.847q.444-1.021.816-1.918c.248-.6.483-1.184.7-1.759s.452-1.177.689-1.8.488-1.3.752-2.039c.054-.149.1-.3.143-.448a2.311,2.311,0,0,0,.079-.479c.1-.033.191-.064.286-.1a1.241,1.241,0,0,0,.284-.145.511.511,0,0,0,.2-.287.929.929,0,0,1,.1-.256.058.058,0,0,1,.041-.015c.015,0,.028.01.04.031a.821.821,0,0,1,.054.16c.017.066.035.127.055.192q.38,1.217.792,2.479c.274.843.541,1.654.8,2.439s.5,1.486.713,2.11.387,1.126.514,1.513a3.344,3.344,0,0,0,.475.958,1.485,1.485,0,0,0,.532.448,2.512,2.512,0,0,0,.592.192.835.835,0,0,1,.4.153.288.288,0,0,1,.127.215c0,.064-.044.106-.127.129a1.451,1.451,0,0,1-.333.031c-.147,0-.348-.008-.6-.023s-.524-.033-.808-.049-.548-.023-.79-.023h-.618c-.211,0-.407,0-.586.008s-.332.008-.46.008a.914.914,0,0,1-.332-.049c-.085-.031-.127-.077-.127-.143s.053-.139.16-.192a1.165,1.165,0,0,1,.363-.111,1.532,1.532,0,0,0,.745-.272.585.585,0,0,0,.221-.448,3.4,3.4,0,0,0-.1-.7q-.1-.454-.245-.976c-.1-.344-.185-.653-.269-.919-.022-.085-.06-.135-.12-.151a1.326,1.326,0,0,0-.308-.026h-2.993a.23.23,0,0,0-.134.057.542.542,0,0,0-.135.233c-.031.107-.084.275-.157.5s-.148.471-.221.727-.138.484-.19.689a2.052,2.052,0,0,0-.08.384.731.731,0,0,0,.27.582,1.539,1.539,0,0,0,.648.33c.349.1.523.2.523.318,0,.066-.041.112-.126.138a1.175,1.175,0,0,1-.332.039q-.207,0-.6-.016t-.839-.015c-.348,0-.686.015-1.012.046A8.78,8.78,0,0,1,319.239,327.289Zm3.7-4.588H325.4c.148,0,.221-.028.221-.081a.382.382,0,0,0-.008-.072.745.745,0,0,0-.023-.088l-1.235-3.9c-.064-.192-.111-.287-.143-.287s-.063.09-.126.272l-1.441,3.919a.5.5,0,0,0-.032.126.092.092,0,0,0,.088.1A1.214,1.214,0,0,0,322.943,322.7Z" transform="translate(-163.365 -316.113)"/><path class="b" d="M335.145,327.115c-.08-.036-.12-.082-.12-.134a.2.2,0,0,1,.151-.2c.1-.039.166-.063.2-.073a2.42,2.42,0,0,0,.95-.375.907.907,0,0,0,.331-.778v-7.419a1.522,1.522,0,0,0-.078-.568.522.522,0,0,0-.284-.272,2.752,2.752,0,0,0-.6-.153c-.349-.064-.523-.171-.523-.318,0-.066.043-.109.126-.138a1.178,1.178,0,0,1,.333-.039q.427,0,.689.015c.174.01.339.018.5.023s.354.008.586.008c.264,0,.49,0,.681-.008s.385-.013.584-.023.444-.015.73-.015a1.166,1.166,0,0,1,.331.039c.085.028.127.072.127.138a.23.23,0,0,1-.127.192,1.162,1.162,0,0,1-.4.126,6.633,6.633,0,0,0-1,.264.6.6,0,0,0-.411.617v7.531a1.038,1.038,0,0,0,.221.735,1.414,1.414,0,0,0,1,.242H341.1a1.945,1.945,0,0,0,.753-.138,1.715,1.715,0,0,0,.483-.279,2.679,2.679,0,0,0,.466-.488,4.756,4.756,0,0,0,.357-.646,2.035,2.035,0,0,1,.134-.288c.07-.129.14-.192.214-.192a.151.151,0,0,1,.143.1.41.41,0,0,1,.048.192.128.128,0,0,1-.008.039.142.142,0,0,0-.008.041c-.073.277-.14.525-.2.751s-.1.438-.142.64-.067.415-.088.64a.639.639,0,0,1-.055.192.164.164,0,0,1-.166.08q-.792,0-1.52-.015c-.485-.01-.953-.021-1.4-.026s-.879-.013-1.291-.023-.817-.016-1.218-.016c-.265,0-.563.005-.895.016s-.748.033-1.244.064A.742.742,0,0,1,335.145,327.115Z" transform="translate(-158.697 -315.995)"/><path class="b" d="M345.029,327.171a1.076,1.076,0,0,1-.333-.041c-.084-.026-.127-.07-.127-.134,0-.127.175-.223.524-.288a2.06,2.06,0,0,0,.918-.367.989.989,0,0,0,.315-.816V318.3a1.139,1.139,0,0,0-.229-.8,1.541,1.541,0,0,0-.83-.353c-.349-.064-.523-.171-.523-.318,0-.066.041-.109.127-.138a1.159,1.159,0,0,1,.331-.039c.286,0,.521.005.7.015s.363.018.532.023.375.008.618.008.422,0,.569-.008.306-.013.475-.023.4-.015.681-.015a1.169,1.169,0,0,1,.332.039c.084.028.127.072.127.138a.233.233,0,0,1-.127.192,1.162,1.162,0,0,1-.4.126,1.8,1.8,0,0,0-.856.353,1.03,1.03,0,0,0-.268.8v7.228a.966.966,0,0,0,.332.816,2.167,2.167,0,0,0,.918.367,1.6,1.6,0,0,1,.4.112.2.2,0,0,1,.126.176c0,.064-.043.108-.126.134a1.081,1.081,0,0,1-.333.041c-.284,0-.519-.008-.7-.023s-.362-.031-.53-.041-.375-.016-.617-.016c-.265,0-.494.005-.689.016s-.4.023-.6.041S345.313,327.171,345.029,327.171Z" transform="translate(-155.955 -315.995)"/><path class="b" d="M357.257,327.368a6.027,6.027,0,0,1-2.137-.386,5.756,5.756,0,0,1-1.837-1.094,5.12,5.12,0,0,1-1.742-3.926,4.814,4.814,0,0,1,.49-2.158,5.474,5.474,0,0,1,1.347-1.728,6.38,6.38,0,0,1,1.956-1.144,6.678,6.678,0,0,1,2.32-.407,9.189,9.189,0,0,1,1.044.049,8.078,8.078,0,0,1,.832.135c.268.059.583.138.941.233a.531.531,0,0,1,.46.545c.021.243.048.507.08.789s.051.632.063,1.049a.182.182,0,0,1-.1.184.332.332,0,0,1-.252.039.254.254,0,0,1-.182-.207,6.381,6.381,0,0,0-.364-1.049,1.828,1.828,0,0,0-.618-.727,2.889,2.889,0,0,0-.958-.407,5.172,5.172,0,0,0-1.211-.138,3.872,3.872,0,0,0-1.7.378,4.069,4.069,0,0,0-1.347,1.023,4.923,4.923,0,0,0-.878,1.462,4.645,4.645,0,0,0-.318,1.694,6.138,6.138,0,0,0,.31,1.919,5.719,5.719,0,0,0,.886,1.7,4.522,4.522,0,0,0,1.377,1.215,3.52,3.52,0,0,0,1.782.456,3.178,3.178,0,0,0,1.882-.528,4.317,4.317,0,0,0,1.268-1.471.35.35,0,0,1,.323-.207c.143,0,.214.085.214.256a2.049,2.049,0,0,1-.063.407,5.812,5.812,0,0,1-.166.593c-.068.207-.134.39-.2.551a.6.6,0,0,1-.507.433,5.821,5.821,0,0,1-1.4.35A11.709,11.709,0,0,1,357.257,327.368Z" transform="translate(-153.951 -316.031)"/><path class="b" d="M362.6,327.289a.814.814,0,0,1-.333-.057c-.084-.036-.125-.088-.125-.149a.247.247,0,0,1,.133-.2,1.622,1.622,0,0,1,.389-.166,2.582,2.582,0,0,0,.76-.386,1.99,1.99,0,0,0,.6-.847q.444-1.021.816-1.918c.248-.6.483-1.184.7-1.759s.452-1.177.689-1.8.488-1.3.752-2.039c.054-.149.1-.3.143-.448a2.311,2.311,0,0,0,.079-.479c.1-.033.191-.064.286-.1a1.241,1.241,0,0,0,.284-.145.511.511,0,0,0,.2-.287.929.929,0,0,1,.1-.256.055.055,0,0,1,.04-.015c.017,0,.03.01.041.031a.823.823,0,0,1,.054.16c.017.066.035.127.055.192q.38,1.217.792,2.479c.274.843.541,1.654.8,2.439s.5,1.486.713,2.11.387,1.126.514,1.513a3.342,3.342,0,0,0,.475.958,1.492,1.492,0,0,0,.53.448,2.541,2.541,0,0,0,.593.192.841.841,0,0,1,.4.153.286.286,0,0,1,.126.215c0,.064-.043.106-.126.129a1.459,1.459,0,0,1-.333.031c-.147,0-.348-.008-.6-.023s-.524-.033-.808-.049-.548-.023-.792-.023h-.617c-.211,0-.407,0-.586.008s-.332.008-.46.008a.926.926,0,0,1-.333-.049c-.084-.031-.126-.077-.126-.143s.053-.139.16-.192a1.164,1.164,0,0,1,.363-.111,1.532,1.532,0,0,0,.745-.272.585.585,0,0,0,.221-.448,3.5,3.5,0,0,0-.1-.7c-.068-.3-.151-.628-.245-.976s-.185-.653-.269-.919c-.022-.085-.06-.135-.12-.151a1.326,1.326,0,0,0-.308-.026h-2.993a.23.23,0,0,0-.134.057.543.543,0,0,0-.135.233c-.031.107-.084.275-.158.5s-.147.471-.221.727-.136.484-.189.689a2.052,2.052,0,0,0-.08.384.734.734,0,0,0,.269.582,1.551,1.551,0,0,0,.649.33c.349.1.523.2.523.318,0,.066-.041.112-.126.138a1.175,1.175,0,0,1-.332.039q-.207,0-.6-.016c-.264-.01-.545-.015-.839-.015-.348,0-.686.015-1.012.046A8.78,8.78,0,0,1,362.6,327.289Zm3.7-4.588h2.454c.148,0,.221-.028.221-.081a.382.382,0,0,0-.008-.072.75.75,0,0,0-.023-.088l-1.235-3.9c-.064-.192-.111-.287-.143-.287s-.063.09-.127.272l-1.439,3.919a.5.5,0,0,0-.032.126.092.092,0,0,0,.088.1A1.206,1.206,0,0,0,366.3,322.7Z" transform="translate(-150.905 -316.113)"/></g></g></g></svg>