<svg xmlns="http://www.w3.org/2000/svg" width="62" height="62" viewBox="0 0 62 62"><defs><style>.a{fill:#ce8163;font-size:23px;font-family:FontAwesome6Pro-Solid, 'Font Awesome \36  Pro';}.b{fill:none;}.c,.d{stroke:none;}.d{fill:#ce8163;}</style></defs><g transform="translate(-695.603 -956.603)"><text class="a" transform="translate(718.603 996.603)"><tspan x="0" y="0"></tspan></text><g class="b" transform="translate(695.603 956.603)"><path class="c" d="M31,0A31,31,0,1,1,0,31,31,31,0,0,1,31,0Z"/><path class="d" d="M 31 1 C 26.94958114624023 1 23.02085876464844 1.793060302734375 19.32294845581055 3.357139587402344 C 15.75069046020508 4.868080139160156 12.54227066040039 7.031330108642578 9.786800384521484 9.786800384521484 C 7.031330108642578 12.54227066040039 4.868080139160156 15.75069046020508 3.357139587402344 19.32294845581055 C 1.793060302734375 23.02085876464844 1 26.94958114624023 1 31 C 1 35.05042266845703 1.793060302734375 38.97914123535156 3.357139587402344 42.67704772949219 C 4.868080139160156 46.24930953979492 7.031330108642578 49.45772933959961 9.786800384521484 52.21319961547852 C 12.54227066040039 54.96866989135742 15.75069046020508 57.13191986083984 19.32294845581055 58.64286041259766 C 23.02085876464844 60.20693969726562 26.94958114624023 61 31 61 C 35.05042266845703 61 38.97914123535156 60.20693969726562 42.67704772949219 58.64286041259766 C 46.24930953979492 57.13191986083984 49.45772933959961 54.96866989135742 52.21319961547852 52.21319961547852 C 54.96866989135742 49.45772933959961 57.13191986083984 46.24930953979492 58.64286041259766 42.67704772949219 C 60.20693969726562 38.97914123535156 61 35.05042266845703 61 31 C 61 26.94958114624023 60.20693969726562 23.02085876464844 58.64286041259766 19.32294845581055 C 57.13191986083984 15.75069046020508 54.96866989135742 12.54227066040039 52.21319961547852 9.786800384521484 C 49.45772933959961 7.031330108642578 46.24930953979492 4.868080139160156 42.67704772949219 3.357139587402344 C 38.97914123535156 1.793060302734375 35.05042266845703 1 31 1 M 31 0 C 48.12083053588867 0 62 13.87916946411133 62 31 C 62 48.12083053588867 48.12083053588867 62 31 62 C 13.87916946411133 62 0 48.12083053588867 0 31 C 0 13.87916946411133 13.87916946411133 0 31 0 Z"/></g></g></svg>