<svg xmlns="http://www.w3.org/2000/svg" width="74.657" height="79.71" viewBox="0 0 74.657 79.71"><defs><style>.a{fill:#fff;}</style></defs><g transform="translate(-933 -2176)"><g transform="translate(933 2176)"><path class="a" d="M345.037,767.592l-6.235-3.333-1.227,2.294,6.227,3.329a32.179,32.179,0,0,1-8.834,9.674l-3.888-5.86-2.169,1.44L332.8,781a31.888,31.888,0,0,1-15.271,4.62v-7.048h-2.6v7.04a31.717,31.717,0,0,1-12.615-3.163l3.321-6.208-2.3-1.227-3.32,6.206a32.222,32.222,0,0,1-9.684-8.812l5.862-3.891-1.44-2.169-5.862,3.89a31.76,31.76,0,0,1-4.611-15.273h7.04v-2.6h-7.04a31.716,31.716,0,0,1,3.163-12.615l6.208,3.321,1.228-2.3-6.208-3.32a32.171,32.171,0,0,1,8.812-9.684l3.89,5.862,2.169-1.44-3.888-5.862a31.757,31.757,0,0,1,15.271-4.611v7.04h2.6v-7.048a31.719,31.719,0,0,1,12.6,3.191l-3.308,6.188,2.294,1.228,3.306-6.184a32.5,32.5,0,0,1,9.7,8.789l-5.861,3.888,1.44,2.169,5.871-3.9a31.455,31.455,0,0,1,3.5,8.093l-5.995-2.011-.827,2.468,9.464,3.174,5.686-6.751-1.99-1.677-3.062,3.635a35.739,35.739,0,0,0-22.7-23.9V713.03a3.6,3.6,0,0,0-3.595-3.595H308.91a3.6,3.6,0,0,0-3.595,3.595v6.884a35.477,35.477,0,1,0,45.672,40.9l-3.4-.695A31.65,31.65,0,0,1,345.037,767.592ZM308.91,712.906l15.267.123v6.1a34.794,34.794,0,0,0-7.952-.949,35.491,35.491,0,0,0-7.406.791Z" transform="translate(-280.743 -709.435)"/><path class="a" d="M308.646,747.216V736H297.055v3.471h8.12v4.271h-8.652v10.379h11.567v-3.471h-8.1v-3.437Z" transform="translate(-275.366 -700.382)"/><path class="a" d="M321.322,753.912V736.051h-3.471v7.677h-5.025v-7.677h-3.471V747.2h8.5v6.713Z" transform="translate(-270.993 -700.365)"/></g></g></svg>