<svg xmlns="http://www.w3.org/2000/svg" width="78.476" height="53.179" viewBox="0 0 78.476 53.179"><defs><style>.a{fill:#fff;}</style></defs><g transform="translate(-154.411 -592.903)"><path class="a" d="M232.623,616.574l-8.226-21.2a3.859,3.859,0,0,0-4.993-2.2l-4.226,1.641a3.328,3.328,0,0,0-1.224-.978,3.387,3.387,0,0,0-2.6-.059l-10.366,4.022,4.512,11.633-27.393,10.626-4.513-11.633-10.366,4.021a3.369,3.369,0,0,0-2.12,3.342l-4.231,1.641a3.857,3.857,0,0,0-2.2,4.991L162.9,643.62a3.861,3.861,0,0,0,4.991,2.2l4.227-1.64a3.331,3.331,0,0,0,1.224.976,3.38,3.38,0,0,0,2.6.06L186.31,641.2,181.8,629.563l27.392-10.626,4.514,11.634,10.366-4.022a3.369,3.369,0,0,0,2.12-3.342l4.231-1.641a3.857,3.857,0,0,0,2.2-4.992Zm-65.666,26.834a1.269,1.269,0,0,1-1.642-.723l-8.226-21.206a1.267,1.267,0,0,1,.724-1.642l4.033-1.565,2.838,7.315,6.3,16.257Zm8.049-.6a.794.794,0,0,1-.618-.015.8.8,0,0,1-.427-.447L163.7,615.9a.81.81,0,0,1,.462-1.048l7.953-3.084,3.576,9.219h0l1.845,4.756,5.421,13.975Zm33.247-26.281-27.392,10.625-.909-2.342-.908-2.342,27.392-10.626,1.487,3.833Zm14.879,7.612-7.953,3.085L211.6,618h0l-2.936-7.568-4.33-11.162,7.952-3.085a.81.81,0,0,1,1.047.462l10.258,26.441A.811.811,0,0,1,223.132,624.136Zm7.055-5.655a1.261,1.261,0,0,1-.7.671l-4.033,1.565-2.763-7.123-6.38-16.448,4.032-1.565a1.269,1.269,0,0,1,1.642.724l8.227,21.205A1.262,1.262,0,0,1,230.187,618.481Z"/><rect class="a" width="1.942" height="9.558" transform="translate(210.865 598.48) rotate(-21.197)"/><rect class="a" width="1.942" height="9.56" transform="translate(169.474 614.026) rotate(-21.201)"/></g></svg>