<svg xmlns="http://www.w3.org/2000/svg" width="79.161" height="73.555" viewBox="0 0 79.161 73.555"><defs><style>.a{fill:#fff;}</style></defs><g transform="translate(-607.719 -702.383)"><path class="a" d="M643.673,739.788,624.4,728.964c.232-1.076.473-2.054.7-2.89.114,0,.222.034.337.034a9.8,9.8,0,0,0,8.3-4.615l12.9-5.655v-6.144h-1.942v4.875l-9.816,4.306a9.718,9.718,0,0,0,.392-2.594,9.837,9.837,0,0,0-9.826-9.826,9.7,9.7,0,0,0-2.848.471A6.01,6.01,0,0,0,621,704.144a5.882,5.882,0,0,0-3.575-1.739,4.342,4.342,0,0,0-3.532,1.2c-1.81,1.81-1.568,5,.541,7.107a6.084,6.084,0,0,0,2.17,1.339,9.572,9.572,0,0,0,1.009,10.117,63.92,63.92,0,0,0-4.865,8.86c-1.3,3.134-5.337,16.524-5.01,19.8.161,1.607,1.455,3.7,2.953,6.119,1.4,2.267,2.991,4.835,3.154,6.482l.086.875h3.032v11.631h5.91V774h-3.968v-9.689h5.5v11.631h5.911V774h-3.969v-9.689h5l-.064-1.03c-.03-.483-.786-11.906-6.051-17.51-2.623-2.791-2.2-9.439-1.238-14.8l16.828,9.449a5.4,5.4,0,0,0-2.883,4.76h1.941a3.479,3.479,0,1,1,6.957,0v29.475h1.942V745.177A5.413,5.413,0,0,0,643.673,739.788Zm-10.357-23.507a7.86,7.86,0,0,1-13.629,5.363,13.87,13.87,0,0,0,5.614-1.5,12.645,12.645,0,0,0,6.73-8.155A7.816,7.816,0,0,1,633.316,716.281Zm-17.509-6.944c-1.352-1.351-1.594-3.309-.541-4.362a2.391,2.391,0,0,1,1.976-.637,4.12,4.12,0,0,1,3.521,3.352,9.836,9.836,0,0,0-3.135,2.688A4.071,4.071,0,0,1,615.807,709.337Zm9.625-.94a7.8,7.8,0,0,1,4.9,1.761c-.146,3.218-2.458,6.493-5.919,8.26a11.643,11.643,0,0,1-6.064,1.269,7.785,7.785,0,0,1-.806-3.406A7.893,7.893,0,0,1,625.432,708.4Zm-1.611,38.7c3.921,4.173,5.124,12.384,5.434,15.268H615.618a26.506,26.506,0,0,0-3.276-6.436c-1.257-2.03-2.556-4.131-2.672-5.291-.261-2.613,3.333-15.16,4.871-18.869a61,61,0,0,1,4.439-8.136,9.751,9.751,0,0,0,4.177,2.182c-.156.59-.336,1.318-.527,2.157l-.365-.2-.951,1.694.895.5C621.143,735.46,620.377,743.431,623.821,747.1Z"/><path class="a" d="M683.1,749.9h3.779l-.081-1.046c-.931-12.088-8.052-22.5-10.137-25.32a9.875,9.875,0,1,0-16.01-4.655l-9.816-4.306v-4.875h-1.942v6.144l12.9,5.654a9.819,9.819,0,0,0,5.962,4.3c.363,2.914.644,6.767.852,10.512l-1.056,1.819-10.332,1.642v0a5.419,5.419,0,0,0-5.268,5.405v29.475h1.942V745.177a3.478,3.478,0,1,1,6.957,0h1.942a5.386,5.386,0,0,0-1.839-4.036l7.813-1.241.021-.038c.23,4.975.329,9.006.331,9.086l.023.948h2.769v19.912h.727v3.873h-3.258v1.942h5.2v-5.815h4.071v3.873H675.39v1.942h5.2v-5.815H683.1Zm-13.015-41.5a7.868,7.868,0,0,1,7.224,11.022l-5.433-6.217-.519.07c-2.336.321-5.777-1.049-7.466-1.811A7.847,7.847,0,0,1,670.086,708.4Zm-7.884,7.884a7.824,7.824,0,0,1,.665-3.148c1.664.772,5.356,2.3,8.219,2.114l5.157,5.9a7.852,7.852,0,0,1-14.041-4.865Zm8.371,20.5,3.871-6.666-1.678-.976-2.4,4.137c-.171-2.59-.376-5.1-.622-7.205.117,0,.227.035.345.035a9.71,9.71,0,0,0,5.01-1.421c1.882,2.565,8.464,12.219,9.671,23.267H671.03C670.976,746.061,670.832,741.578,670.573,736.783Zm6.4,31.084.247-14.3-1.941-.033-.248,14.332h-1.177V749.9h7.31v17.971Z"/></g></svg>