<svg xmlns="http://www.w3.org/2000/svg" width="83.42" height="71.982" viewBox="0 0 83.42 71.982"><defs><style>.a{fill:#fff;}</style></defs><g transform="translate(-500.016 -201.054)"><path class="a" d="M557.505,213.4a20.51,20.51,0,0,0-12.62,4.25c1.6-5.45,5.658-13.461,15.621-13.131l.092-3.458c-.191-.005-.377-.007-.562-.007-12.079,0-17.42,10.313-19.076,17.871a23.644,23.644,0,0,0-15.013-5.526c-14.3,0-25.93,13.375-25.93,29.818s11.633,29.818,25.93,29.818c5.7,0,10.751-2.128,15.4-6.5a23.846,23.846,0,0,0,16.164,6.5c14.3,0,25.93-13.377,25.93-29.818S571.8,213.4,557.505,213.4Zm0,56.177a20.666,20.666,0,0,1-14.924-6.663l-1.248-1.3-1.248,1.3c-4.358,4.547-8.85,6.663-14.14,6.663-12.391,0-22.471-11.825-22.471-26.359s10.081-26.36,22.471-26.36a20.668,20.668,0,0,1,14.96,6.7l1.252,1.311,1.251-1.311c4.362-4.571,8.842-6.7,14.1-6.7,12.392,0,22.473,11.825,22.473,26.36S569.9,269.577,557.505,269.577Z" transform="translate(0 0)"/><path class="a" d="M546.554,213.731c-5.255,0-9.677,2.079-13.922,6.54l-.346.365-.718,36.461.37.386a20.183,20.183,0,0,0,14.615,6.5c12,0,21.765-11.272,21.765-25.129S558.555,213.731,546.554,213.731Zm0,47.663a17.529,17.529,0,0,1-12.37-5.326l.677-34.367c3.61-3.665,7.338-5.376,11.693-5.376,10.571,0,19.17,10.11,19.17,22.534S557.125,261.394,546.554,261.394Z" transform="translate(10.604 4.26)"/><rect class="a" width="4.93" height="3.46" transform="translate(547.03 237.469) rotate(-12.746)"/><rect class="a" width="3.46" height="4.93" transform="translate(547.48 249.82) rotate(-75.783)"/><path class="a" d="M507.076,223.819l2.255,1.281c4.16-7.322,12.956-8.781,13.044-8.794l-.4-2.564C521.567,213.8,511.867,215.385,507.076,223.819Z" transform="translate(2.373 4.264)"/></g></svg>