<svg xmlns="http://www.w3.org/2000/svg" width="68.777" height="84.74" viewBox="0 0 68.777 84.74"><defs><style>.a{fill:#fff;}</style></defs><g transform="translate(-503.535 -325.707)"><path class="a" d="M537.923,325.707c-18.962,0-34.388,19.006-34.388,42.37s15.426,42.37,34.388,42.37,34.388-19.008,34.388-42.37S556.886,325.707,537.923,325.707Zm0,81.893c-17.392,0-31.54-17.73-31.54-39.522s14.148-39.521,31.54-39.521,31.54,17.729,31.54,39.521S555.316,407.6,537.923,407.6Z"/><path class="a" d="M537.457,331.483c-16.14,0-29.272,16.156-29.272,36.015s13.132,36.015,29.272,36.015,29.272-16.158,29.272-36.015S553.6,331.483,537.457,331.483Zm15.811,9.5-5.18,5.178,1.511,1.511,5.174-5.173c5.263,5.753,8.683,14.063,9.043,23.38-10.885-1.156-18.715-6.777-23.216-16.834a44.885,44.885,0,0,1-3.589-14.691c.151,0,.3-.029.448-.029A23.011,23.011,0,0,1,553.268,340.988Zm-14.432,23.066c-.516-2-.7-8.189-.744-13.8,2.684,5.967,7.177,12.04,14.684,15.6l-14.088,1.318A5.9,5.9,0,0,0,538.835,364.053Zm-18.305,28.88,1.783-.465.448,2.575A28.275,28.275,0,0,1,520.53,392.933Zm4.024-.047c2.623-.744,5.6-1.231,6.431-.8a.656.656,0,0,1,.429.754c-.145.83-1.7,2.5-6.288,3.32Zm2.452,5.061c3.751-.932,6.142-2.621,6.512-4.737a2.791,2.791,0,0,0-1.545-3.016c-1.753-.915-5.7-.005-7.788.577l-.166-.956-5.063,1.323a37.626,37.626,0,0,1-7.922-23.639c0-16.892,10.12-30.847,23.145-32.883a49.361,49.361,0,0,0,1.1,7.141h-.009c-.012.708-.243,16.167.589,21.826l-1.691-4.265-1.986.787,3.116,7.861a31.336,31.336,0,0,1-5.314,6.3l-.662.647a3.039,3.039,0,0,0-.9,2.553c.256,2.34,2.948,4.515,4.187,5.4.329,2.685,1.832,12.476,6.563,17.686-.569.046-1.134.109-1.712.109A21.786,21.786,0,0,1,527.005,397.947Zm15.8,2.03c-2.411-1.611-4.083-4.784-5.219-8.048.122,0,.224.008.353.008a16.7,16.7,0,0,0,8.32-2.007l-1.444-2.456a14.875,14.875,0,0,1-8.109,1.567,51.36,51.36,0,0,1-1.344-7.115l-.065-.692-.585-.374c-1.784-1.139-3.37-2.832-3.381-3.932l.627-.612a40.781,40.781,0,0,0,4.625-5.1l2.019,5.1,1.986-.787-2.441-6.156,19.167-1.794a36.05,36.05,0,0,0,6.509,1.206C563.354,384.192,554.495,396.947,542.809,399.977Z" transform="translate(0.467 0.58)"/><path class="a" d="M540.812,376.277l-.548,2.064c.08.022,8.143,2.219,9.612,7.077l2.044-.617C550.106,378.8,541.191,376.377,540.812,376.277Z" transform="translate(3.686 5.075)"/><rect class="a" width="21.703" height="2.136" transform="translate(516.859 360.14) rotate(-45.002)"/></g></svg>