<svg xmlns="http://www.w3.org/2000/svg" width="83.943" height="79.71" viewBox="0 0 83.943 79.71"><defs><style>.a{fill:#fff;}</style></defs><g transform="translate(-924 -2054)"><g transform="translate(924 2054)"><path class="a" d="M805.974,731.079h-5.048a1.774,1.774,0,0,0-1.77,1.771v6.056a8.747,8.747,0,0,0-13.211,0V726.36a2.246,2.246,0,0,0-2.244-2.243h-.923l-4.567-4.567a4.046,4.046,0,0,0-2.884-1.2H756.582a4.057,4.057,0,0,0-3.967,3.144l-2.279,9.683a3.529,3.529,0,0,0,3.436,4.338h.663v4.578l-4.916-3.322a4.87,4.87,0,0,0-5.564.084l-13.6,9.813h-1.977a2.83,2.83,0,0,0-2.826,2.824v5.24a1.958,1.958,0,0,0-1.753,1.931v8.578a1.978,1.978,0,0,0,1.977,1.975h1.207v10.776h7.476V767.216H798.4v10.776h7.476v-10.8a1.966,1.966,0,0,0,1.868-1.953V732.85A1.774,1.774,0,0,0,805.974,731.079Zm-13.423,7.07a6.611,6.611,0,0,1,6.6,6.6,6.537,6.537,0,0,1-1.59,4.25,13.21,13.21,0,0,0-10.022.009,6.5,6.5,0,0,1-1.6-4.259A6.612,6.612,0,0,1,792.552,738.149Zm-6.339,16.538a1.9,1.9,0,0,1-.268-.891c0-1.666,2.727-3.522,6.642-3.522a10.937,10.937,0,0,1,6.476,2.094l.094.059v2.259Zm-33.44-21.908a1.266,1.266,0,0,1-.24-1.084l2.279-9.685a1.812,1.812,0,0,1,1.77-1.4h18.744a1.811,1.811,0,0,1,1.289.534l2.976,2.975h-1.675a2.247,2.247,0,0,0-2.244,2.243v.049H761.639v2.256h14.033v4.6h-21.9A1.272,1.272,0,0,1,752.773,732.78Zm3.918,2.738h18.981v7.226H758.353l-1.662-1.123ZM727.81,749.493a.57.57,0,0,1,.57-.569h25.868v-2.255H734.214l11.063-7.983a2.606,2.606,0,0,1,2.981-.045l9.4,6.357h20.268l-.006-9.481h.006v-9.109h-.012v-.036l5.773-.013v28.328H727.81Zm-1.753,7.449h75.353V733.335h4.079V764.96H726.058Zm6.149,18.794H729.24v-8.52h2.967Zm68.45,0v-8.52h2.965v8.52Z" transform="translate(-723.802 -698.282)"/><path class="a" d="M762.318,719.79a9.359,9.359,0,1,0-9.359-9.359A9.369,9.369,0,0,0,762.318,719.79Zm0-16.463a7.1,7.1,0,1,1-7.1,7.1A7.111,7.111,0,0,1,762.318,703.328Z" transform="translate(-719.092 -701.073)"/></g></g></svg>