<svg xmlns="http://www.w3.org/2000/svg" width="86.23" height="78.271" viewBox="0 0 86.23 78.271"><defs><style>.a{fill:#fff;}</style></defs><g transform="translate(-275.85 -203.427)"><path class="a" d="M307.093,221.065a17.628,17.628,0,0,0-24.9,0l-1.2,1.2a17.618,17.618,0,0,0,0,24.89l24.681,24.683a17.623,17.623,0,0,0,24.892,0l1.2-1.2a17.62,17.62,0,0,0,0-24.892Zm-23.573,3.724,1.2-1.2a14.056,14.056,0,0,1,19.852,0l11.081,11.081L294.6,255.72l-11.08-11.081A14.052,14.052,0,0,1,283.52,224.789Zm45.732,43.329-1.2,1.2a14.053,14.053,0,0,1-19.85,0l-11.081-11.08,21.054-21.054,11.08,11.08A14.054,14.054,0,0,1,329.253,268.118Z" transform="translate(0 4.71)"/><rect class="a" width="2.673" height="16.61" transform="translate(282.982 244.923) rotate(-44.996)"/><path class="a" d="M342.427,219.889a15.51,15.51,0,1,0,0,21.942A15.411,15.411,0,0,0,342.427,219.889ZM319.5,230.86a11.887,11.887,0,0,1,19.364-9.3l-16.716,16.719A11.819,11.819,0,0,1,319.5,230.86Zm20.4,8.451a11.93,11.93,0,0,1-15.861.85l16.711-16.712A11.927,11.927,0,0,1,339.905,239.311Z" transform="translate(15.116 4.494)"/><path class="a" d="M308.453,217.087a6.83,6.83,0,1,0-6.83-6.83A6.836,6.836,0,0,0,308.453,217.087Zm0-10.1a3.266,3.266,0,1,1-3.265,3.265A3.271,3.271,0,0,1,308.453,206.992Z" transform="translate(9.718)"/></g></svg>