<svg xmlns="http://www.w3.org/2000/svg" width="80.306" height="55.975" viewBox="0 0 80.306 55.975"><defs><style>.a{fill:#fff;}</style></defs><g transform="translate(-153.374 -335.351)"><rect class="a" width="29.933" height="2.589" transform="translate(153.373 362.716)"/><path class="a" d="M233.68,358.509H223.542a22.752,22.752,0,0,0,.214-2.812c0-11.771-7.27-18.538-14.475-20.023a13.478,13.478,0,0,0-14.811,6.448,13.478,13.478,0,0,0-14.811-6.448c-7.205,1.485-14.474,8.252-14.474,20.023a23.3,23.3,0,0,0,.46,4.574l2.538-.508a20.748,20.748,0,0,1-.409-4.066c0-10.314,6.231-16.214,12.409-17.487a10.952,10.952,0,0,1,12.789,6.678,1.69,1.69,0,0,0,3,0,10.943,10.943,0,0,1,12.789-6.678c6.177,1.273,12.409,7.173,12.409,17.487a20.492,20.492,0,0,1-.221,2.812h-8.51l-3.352-11.738-4.759,19.886-6.8-16.2-2.893,12.259h-4.211V365.3h6.262l1.534-6.51L205,374.954l4.3-17.982,1.178,4.126H220.4c-3.843,14.576-21.923,25.4-25.977,27.627-2.773-1.549-16.938-9.865-23.4-21.484l-2.263,1.259c6.635,11.924,20.357,20.225,24.405,22.485a2.656,2.656,0,0,0,1.3.341,2.686,2.686,0,0,0,1.313-.346c4.209-2.35,23.484-13.933,27.274-29.882H233.68Z"/></g></svg>